<?xml version="1.0" encoding="utf-8"?>
<!-- Generator: Adobe Illustrator 16.0.0, SVG Export Plug-In . SVG Version: 6.00 Build 0)  -->
<!DOCTYPE svg PUBLIC "-//W3C//DTD SVG 1.1//EN" "http://www.w3.org/Graphics/SVG/1.1/DTD/svg11.dtd">
<svg version="1.1" id="Layer_1" xmlns="http://www.w3.org/2000/svg" xmlns:xlink="http://www.w3.org/1999/xlink" x="0px" y="0px"
	 width="900px" height="600px" viewBox="0 0 900 600" enable-background="new 0 0 900 600" xml:space="preserve">
<circle opacity="0.4" fill="#109F94" enable-background="new    " cx="423.738" cy="298.38" r="12.185"/>
<circle opacity="0.4" fill="#109F94" enable-background="new    " cx="461.027" cy="238.108" r="5.883"/>
<ellipse fill="#109F94" cx="262.184" cy="248.377" rx="76.47" ry="74.966"/>
<g opacity="0.7">
	<g>
		<path fill="#109F94" d="M319.095,288.89c-0.788,12.629,5.587,25.819,12.292,36.109c6.745,10.353,16.88,20.896,29.862,22.019
			c5.489,0.476,11.955-1.734,16.073-5.391c5.769-5.123,6.43-13.24,11.228-19.016c8.753-10.538,28.895,7.783,32.652-10.633
			c0.385-1.89-2.506-2.692-2.893-0.799c-1.717,8.418-8.466,7.008-15.148,5.801c-5.264-0.952-10.304-1.537-14.85,1.773
			c-4.768,3.473-6.37,9.85-8.786,14.913c-3.017,6.32-9.516,10.029-16.416,10.386c-12.915,0.666-23.445-11.84-29.768-21.545
			c-6.212-9.533-11.973-21.955-11.246-33.618C322.215,286.957,319.214,286.969,319.095,288.89L319.095,288.89z"/>
	</g>
</g>
<g opacity="0.7">
	<g>
		<path fill="#109F94" d="M316.31,203.631c16.96-10.131,21.867-29.313,29.141-46.346c3.866-9.056,8.953-17.636,17.271-23.243
			c11.17-7.53,26.334-5.751,37.275,1.155c18.503,11.681,16.264,41.588,38.995,48.106c10.443,2.994,21.792,1.842,30.551,9.352
			c6.14,5.264,9.101,12.502,6.974,20.346c-1.937,7.14-7.105,13.51-10.996,19.67c-1.036,1.641,1.562,3.145,2.591,1.514
			c6.1-9.656,14.928-20.35,11.311-32.493c-3.104-10.425-13.668-16.334-23.561-18.416c-11.24-2.366-22.184-1.994-29.328-12.454
			c-6.516-9.539-9.481-21.048-16.459-30.338c-12.882-17.151-39.319-18.826-54.647-4.425c-14.327,13.464-16.527,35.246-26.708,51.381
			c-3.533,5.599-8.244,10.207-13.921,13.598C313.138,202.031,314.645,204.625,316.31,203.631L316.31,203.631z"/>
	</g>
</g>
</svg>
