<?xml version="1.0" encoding="utf-8"?>
<!-- Generator: Adobe Illustrator 16.0.0, SVG Export Plug-In . SVG Version: 6.00 Build 0)  -->
<!DOCTYPE svg PUBLIC "-//W3C//DTD SVG 1.1//EN" "http://www.w3.org/Graphics/SVG/1.1/DTD/svg11.dtd">
<svg version="1.1" id="Layer_1" xmlns="http://www.w3.org/2000/svg" xmlns:xlink="http://www.w3.org/1999/xlink" x="0px" y="0px"
	 width="960px" height="560px" viewBox="0 0 960 560" enable-background="new 0 0 960 560" xml:space="preserve">
<g>
	<g>
		<g enable-background="new    ">
			<g>
				<polygon fill="#0B7069" points="376.235,476.421 353.441,464.021 366.186,462.23 388.979,474.63 				"/>
			</g>
			<g>
				<polygon fill="#08514C" points="388.979,474.63 366.186,462.23 366.293,404.771 389.086,417.17 				"/>
			</g>
			<g>
				<polygon fill="#0B7069" points="376.342,418.961 353.548,406.563 366.293,404.771 389.086,417.17 				"/>
			</g>
			<g>
				<polygon fill="#08514C" points="376.235,476.421 353.441,464.021 353.548,406.563 376.342,418.961 				"/>
			</g>
			<g>
				<polygon fill="#0E8B81" points="389.086,417.17 388.979,474.63 376.235,476.421 376.342,418.961 				"/>
			</g>
			<g>
				<polygon fill="#08514C" points="372.663,480.761 349.87,468.361 349.99,403.214 372.784,415.613 				"/>
			</g>
			<g>
				<polygon fill="#0B7069" points="372.784,415.613 349.99,403.214 369.856,400.422 392.65,412.821 				"/>
			</g>
			<g>
				<path fill="#0E8B81" d="M372.784,415.613l19.866-2.792l-0.121,65.146l-19.866,2.792L372.784,415.613z M388.979,474.63
					l0.106-57.46l-12.744,1.791l-0.107,57.46L388.979,474.63"/>
			</g>
		</g>
	</g>
</g>
<g>
	<g>
		<g enable-background="new    ">
			<g>
				<polygon fill="#0B7069" points="425.697,469.482 402.904,457.084 414.351,455.475 437.145,467.874 				"/>
			</g>
			<g>
				<polygon fill="#08514C" points="437.145,467.874 414.351,455.475 414.444,405.519 437.237,417.918 				"/>
			</g>
			<g>
				<polygon fill="#0B7069" points="425.79,419.527 402.997,407.128 414.444,405.519 437.237,417.918 				"/>
			</g>
			<g>
				<polygon fill="#08514C" points="425.697,469.482 402.904,457.084 402.997,407.128 425.79,419.527 				"/>
			</g>
			<g>
				<polygon fill="#0E8B81" points="437.237,417.918 437.145,467.874 425.697,469.482 425.79,419.527 				"/>
			</g>
			<g>
				<polygon fill="#08514C" points="422.134,473.821 399.34,461.422 399.447,403.789 422.241,416.188 				"/>
			</g>
			<g>
				<polygon fill="#0B7069" points="422.241,416.188 399.447,403.789 418.007,401.181 440.801,413.58 				"/>
			</g>
			<g>
				<path fill="#0E8B81" d="M422.241,416.188l18.56-2.607l-0.106,57.633l-18.561,2.608L422.241,416.188z M437.145,467.874
					l0.093-49.956l-11.447,1.609l-0.093,49.955L437.145,467.874"/>
			</g>
		</g>
	</g>
</g>
<g>
	<g>
		<g enable-background="new    ">
			<g>
				<polygon fill="#0B7069" points="350.842,433.813 328.048,421.413 332.15,420.837 354.943,433.236 				"/>
			</g>
			<g>
				<polygon fill="#08514C" points="354.943,433.236 332.15,420.837 332.175,407.565 354.968,419.965 				"/>
			</g>
			<g>
				<polygon fill="#0B7069" points="350.866,420.542 328.073,408.143 332.175,407.565 354.968,419.965 				"/>
			</g>
			<g>
				<polygon fill="#08514C" points="350.842,433.813 328.048,421.413 328.073,408.143 350.866,420.542 				"/>
			</g>
			<g>
				<polygon fill="#0E8B81" points="354.968,419.965 354.943,433.236 350.842,433.813 350.866,420.542 				"/>
			</g>
			<g>
				<polygon fill="#08514C" points="347.27,438.152 324.477,425.753 324.516,404.795 347.309,417.194 				"/>
			</g>
			<g>
				<polygon fill="#0B7069" points="347.309,417.194 324.516,404.795 335.747,403.217 358.54,415.616 				"/>
			</g>
			<g>
				<path fill="#0E8B81" d="M347.309,417.194l11.23-1.578l-0.039,20.958l-11.231,1.578L347.309,417.194z M354.943,433.236
					l0.025-13.271l-4.102,0.577l-0.024,13.271L354.943,433.236"/>
			</g>
		</g>
	</g>
</g>
<g>
	<g>
		<g enable-background="new    ">
			<g>
				<polygon fill="#08514C" points="458.372,431.974 435.578,419.574 435.599,408.231 458.393,420.631 				"/>
			</g>
			<g>
				<polygon fill="#0B7069" points="450.064,433.142 427.271,420.742 435.578,419.574 458.372,431.974 				"/>
			</g>
			<g>
				<polygon fill="#0B7069" points="450.086,421.799 427.292,409.399 435.599,408.231 458.393,420.631 				"/>
			</g>
			<g>
				<polygon fill="#08514C" points="450.064,433.142 427.271,420.742 427.292,409.399 450.086,421.799 				"/>
			</g>
			<g>
				<polygon fill="#0E8B81" points="458.393,420.631 458.372,431.974 450.064,433.142 450.086,421.799 				"/>
			</g>
			<g>
				<polygon fill="#08514C" points="446.501,437.488 423.708,425.089 423.743,406.051 446.536,418.45 				"/>
			</g>
			<g>
				<polygon fill="#0B7069" points="446.536,418.45 423.743,406.051 439.171,403.883 461.964,416.282 				"/>
			</g>
			<g>
				<path fill="#0E8B81" d="M446.536,418.45l15.428-2.168l-0.036,19.038l-15.428,2.168L446.536,418.45z M458.372,431.974
					l0.021-11.343l-8.307,1.168l-0.021,11.343L458.372,431.974"/>
			</g>
		</g>
	</g>
</g>
<path fill="#109F94" stroke="#109F94" stroke-width="4" stroke-miterlimit="10" d="M322,419.5h288.908
	c25.428-35.005,40.561-77.998,40.901-124.561C652.67,176.29,557.18,79.4,438.53,78.54c-78.062-0.57-146.7,40.56-184.78,102.57
	c-10.18,16.58-18.18,34.66-23.58,53.83c-5.1,18.1-7.9,37.163-8.04,56.871c-0.06,7.729,0.3,15.369,1.04,22.899
	c0.07,0.79,0.15,1.58,0.25,2.36l97.17,102.614C321.021,419.569,321.488,419.5,322,419.5z"/>
<rect x="403.081" y="359.344" transform="matrix(-0.7034 -0.7107 0.7107 -0.7034 435.0721 909.2605)" fill="none" width="8.292" height="9.042"/>
<rect x="413.68" y="349.783" transform="matrix(-0.7043 -0.7099 0.7099 -0.7043 469.0643 909.221)" fill="none" width="20.441" height="14.265"/>
<circle fill="#109F94" stroke="#109F94" stroke-miterlimit="10" cx="249.667" cy="345.311" r="8.125"/>
<path fill="#E5A228" stroke="#E4EAEA" stroke-width="4" stroke-miterlimit="10" d="M342.798,200.483
	c47.242-41.925-12.291-69.333-58.957-22.666c-46.668,46.667-17.334,66.667-17.334,66.667s-49.145,12.037,19.334,18
	c68.479,5.963,52.666-9.334,72-15.334C377.173,241.15,315.753,224.483,342.798,200.483z"/>
<path fill="#E5A228" stroke="#E4EAEA" stroke-width="4" stroke-miterlimit="10" d="M256.888,280.816l0.284,43.834
	c0,0,0.001,6.834,21.668,0c21.666-6.834,37,3.703,41-12.896c4-16.604,16-13.27,16-25.27c0-12,0-9.333,0-19.333
	s-84.668,37.867-78.668,10.6"/>
<ellipse fill="#E5A228" stroke="#E4EAEA" stroke-width="4" stroke-miterlimit="10" cx="253.507" cy="271.371" rx="9" ry="7.532"/>
<ellipse fill="#E5A228" stroke="#E4EAEA" stroke-width="4" stroke-miterlimit="10" cx="277.841" cy="273.116" rx="6" ry="4.633"/>
<circle fill="#E5A228" stroke="#E4EAEA" stroke-width="4" stroke-miterlimit="10" cx="344.452" cy="320.004" r="24.994"/>
<path fill="#E4EAEA" d="M338.361,302.678c-3.141-0.699-4.476,4.121-1.329,4.822c1.724,0.383,12.024,1.713,11.458,4.176
	c-0.652,2.84-5.613,6.02-7.753,7.561c-3.156,2.271-6.641,4.096-10.052,5.943c-2.835,1.537-0.312,5.855,2.523,4.316
	c4.929-2.672,9.708-5.439,14.042-9.021c2.831-2.338,6.221-5.506,6.322-9.436C353.737,304.572,342.646,303.633,338.361,302.678z"/>
<path fill="#E4EAEA" d="M320.107,326.674c-0.328-1.189-1.814-2.268-3.075-1.746c-1.64,0.682-3.306,1.129-5.085,1.16
	c-3.221,0.057-3.228,5.057,0,5c2.213-0.039,4.372-0.492,6.415-1.338C319.619,329.229,320.502,328.109,320.107,326.674z"/>
<path fill="#E4EAEA" d="M370.962,343.465c-1.134-3.605-5.955-5.113-9.102-6.287c-3.027-1.129-4.322,3.705-1.329,4.822
	c1.531,0.57,5.204,1.504,5.754,3.254c0.544,1.729-2.324,5.305-3,6.92c-1.245,2.973,3.595,4.258,4.821,1.33
	C369.487,350.209,372.157,347.266,370.962,343.465z"/>
<path fill="#E4EAEA" d="M349.458,356.68c-1.365-0.932-3.123-1.525-4.36-2.609c-1.815-1.594-0.47-5.436,0.009-7.314
	c0.795-3.127-4.027-4.453-4.821-1.33c-0.858,3.375-1.725,7.244,0.057,10.502c1.432,2.617,4.252,3.479,6.592,5.072
	C349.607,362.818,352.104,358.484,349.458,356.68z"/>
<linearGradient id="SVGID_1_" gradientUnits="userSpaceOnUse" x1="-205.7949" y1="651.1152" x2="-151.875" y2="651.1152" gradientTransform="matrix(1 0 0 -1 404 855)">
	<stop  offset="0" style="stop-color:#FFFFFF"/>
	<stop  offset="0.0012" style="stop-color:#FEFFFE"/>
	<stop  offset="0.0529" style="stop-color:#CCEBE8"/>
	<stop  offset="0.1069" style="stop-color:#A0D9D5"/>
	<stop  offset="0.1652" style="stop-color:#7AC9C3"/>
	<stop  offset="0.2268" style="stop-color:#59BCB5"/>
	<stop  offset="0.2927" style="stop-color:#3EB2A9"/>
	<stop  offset="0.3645" style="stop-color:#2AA99F"/>
	<stop  offset="0.4453" style="stop-color:#1BA399"/>
	<stop  offset="0.5423" style="stop-color:#13A095"/>
	<stop  offset="0.6995" style="stop-color:#109F94"/>
</linearGradient>
<path fill="url(#SVGID_1_)" d="M252.125,181.61c-10.18,16.58-18.18,34.66-23.58,53.83c-16.86-0.64-30.34-14.51-30.34-31.54
	c0-17.43,14.14-31.57,31.57-31.57C238.515,172.33,246.415,175.88,252.125,181.61z"/>
<linearGradient id="SVGID_2_" gradientUnits="userSpaceOnUse" x1="-224.458" y1="665.333" x2="-189.792" y2="665.333" gradientTransform="matrix(1 0 0 -1 404 855)">
	<stop  offset="0" style="stop-color:#FFFFFF"/>
	<stop  offset="0.0012" style="stop-color:#FEFFFE"/>
	<stop  offset="0.0529" style="stop-color:#CCEBE8"/>
	<stop  offset="0.1069" style="stop-color:#A0D9D5"/>
	<stop  offset="0.1652" style="stop-color:#7AC9C3"/>
	<stop  offset="0.2268" style="stop-color:#59BCB5"/>
	<stop  offset="0.2927" style="stop-color:#3EB2A9"/>
	<stop  offset="0.3645" style="stop-color:#2AA99F"/>
	<stop  offset="0.4453" style="stop-color:#1BA399"/>
	<stop  offset="0.5423" style="stop-color:#13A095"/>
	<stop  offset="0.6995" style="stop-color:#109F94"/>
</linearGradient>
<circle fill="url(#SVGID_2_)" cx="196.875" cy="189.667" r="17.333"/>
<linearGradient id="SVGID_3_" gradientUnits="userSpaceOnUse" x1="-239.791" y1="666.333" x2="-215.125" y2="666.333" gradientTransform="matrix(1 0 0 -1 404 855)">
	<stop  offset="0" style="stop-color:#FFFFFF"/>
	<stop  offset="0.0012" style="stop-color:#FEFFFE"/>
	<stop  offset="0.0529" style="stop-color:#CCEBE8"/>
	<stop  offset="0.1069" style="stop-color:#A0D9D5"/>
	<stop  offset="0.1652" style="stop-color:#7AC9C3"/>
	<stop  offset="0.2268" style="stop-color:#59BCB5"/>
	<stop  offset="0.2927" style="stop-color:#3EB2A9"/>
	<stop  offset="0.3645" style="stop-color:#2AA99F"/>
	<stop  offset="0.4453" style="stop-color:#1BA399"/>
	<stop  offset="0.5423" style="stop-color:#13A095"/>
	<stop  offset="0.6995" style="stop-color:#109F94"/>
</linearGradient>
<circle fill="url(#SVGID_3_)" cx="176.542" cy="188.667" r="12.333"/>
<linearGradient id="SVGID_4_" gradientUnits="userSpaceOnUse" x1="-247.125" y1="659" x2="-232.459" y2="659" gradientTransform="matrix(1 0 0 -1 404 855)">
	<stop  offset="0" style="stop-color:#FFFFFF"/>
	<stop  offset="0.0012" style="stop-color:#FEFFFE"/>
	<stop  offset="0.0529" style="stop-color:#CCEBE8"/>
	<stop  offset="0.1069" style="stop-color:#A0D9D5"/>
	<stop  offset="0.1652" style="stop-color:#7AC9C3"/>
	<stop  offset="0.2268" style="stop-color:#59BCB5"/>
	<stop  offset="0.2927" style="stop-color:#3EB2A9"/>
	<stop  offset="0.3645" style="stop-color:#2AA99F"/>
	<stop  offset="0.4453" style="stop-color:#1BA399"/>
	<stop  offset="0.5423" style="stop-color:#13A095"/>
	<stop  offset="0.6995" style="stop-color:#109F94"/>
</linearGradient>
<circle fill="url(#SVGID_4_)" cx="164.208" cy="196" r="7.333"/>
<circle fill="#110B01" cx="247.269" cy="346.405" r="2.762"/>
<path opacity="0.7" fill="#E5A228" enable-background="new    " d="M248.004,348.311c-7.32-0.811-13.42-4.068-20.23-6.55
	c-8.71-3.181-15.78-1.95-23.84,2.54c-5.99,3.33-11.75,7.271-18.1,9.91c-7.03,2.92-14.25,3.859-21.83,3.43
	c-11.87-0.658-27.01-3.88-30.77-17.1c-2.18-7.631-3.96-23.641,7.04-25.181c0.6-0.079,1.1,0.159,1.43,0.528
	c-0.02-0.18-0.03-0.357-0.03-0.54c0-3.868,3.13-7,7-7s7,3.132,7,7c0,3.86-3.13,7-7,7c-3.08,0-5.69-1.988-6.63-4.75
	c-0.15,0.33-0.47,0.592-0.97,0.66c-6.59,0.92-6.7,8.84-6.23,14.102c0.521,5.931,2.03,11.898,6.97,15.75
	c10.04,7.841,27.96,8.659,39.61,4.591c11.34-3.971,21.12-14.201,33.2-15.75c12.07-1.551,21.74,7.068,33.38,8.359
	C249.903,345.521,249.923,348.521,248.004,348.311z"/>
<circle cx="343.661" cy="429.403" r="2.153"/>
<circle cx="339.355" cy="425.153" r="2.153"/>
<path fill="#109F94" d="M344.425,429.551c0.516-0.375,0.018-1.244-0.505-0.863c-4.587,3.342-7.167,7.34-4.419,12.747
	c1.145,2.255,2.717,4.27,3.555,6.677c1.162,3.341-0.425,6.269-2.736,8.654c-0.449,0.463,0.258,1.171,0.707,0.707
	c3.955-4.085,4.129-8.25,1.376-13.037c-1.167-2.029-2.564-3.975-3.091-6.294C338.464,434.415,341.743,431.505,344.425,429.551z"/>
<path fill="#109F94" d="M338.916,424.998c-3.428,5.251-7.784,9.578-14.408,9.515c-6.06-0.059-11.246-3.575-17.115-4.307
	c-10.651-1.324-8.07,12.991-8.045,19.544c0.002,0.645,1.002,0.645,1,0c-0.019-4.855-0.838-10.123,0.482-14.867
	c1.8-6.467,9.511-2.9,13.733-1.485c4.495,1.507,9.337,2.795,14.065,1.672c4.986-1.186,8.487-5.483,11.152-9.566
	C340.132,424.961,339.266,424.46,338.916,424.998z"/>
<circle fill="#109F94" cx="300.25" cy="451.668" r="2.5"/>
<circle fill="#109F94" cx="338.373" cy="460.5" r="3.911"/>
</svg>
