<?xml version="1.0" encoding="utf-8"?>
<!-- Generator: Adobe Illustrator 16.0.0, SVG Export Plug-In . SVG Version: 6.00 Build 0)  -->
<!DOCTYPE svg PUBLIC "-//W3C//DTD SVG 1.1//EN" "http://www.w3.org/Graphics/SVG/1.1/DTD/svg11.dtd">
<svg version="1.1" id="Layer_1" xmlns="http://www.w3.org/2000/svg" xmlns:xlink="http://www.w3.org/1999/xlink" x="0px" y="0px"
	 width="4000px" height="3000px" viewBox="0 0 4000 3000" enable-background="new 0 0 4000 3000" xml:space="preserve">
<g>
	<g>
		<g enable-background="new    ">
			<g>
				<polygon fill="#0B7069" points="1942.687,2239.548 1857.207,2193.052 1905.002,2186.333 1990.476,2232.831 				"/>
			</g>
			<g>
				<polygon fill="#08514C" points="1990.476,2232.831 1905.002,2186.333 1905.403,1970.864 1990.877,2017.358 				"/>
			</g>
			<g>
				<polygon fill="#0B7069" points="1943.088,2024.073 1857.608,1977.579 1905.403,1970.864 1990.877,2017.358 				"/>
			</g>
			<g>
				<polygon fill="#08514C" points="1942.687,2239.548 1857.207,2193.052 1857.608,1977.579 1943.088,2024.073 				"/>
			</g>
			<g>
				<polygon fill="#0E8B81" points="1990.877,2017.358 1990.476,2232.831 1942.687,2239.548 1943.088,2024.073 				"/>
			</g>
			<g>
				<polygon fill="#08514C" points="1929.292,2255.823 1843.818,2209.323 1844.27,1965.022 1929.746,2011.519 				"/>
			</g>
			<g>
				<polygon fill="#0B7069" points="1929.746,2011.519 1844.27,1965.022 1918.766,1954.552 2004.242,2001.048 				"/>
			</g>
			<g>
				<path fill="#0E8B81" d="M1929.746,2011.519l74.496-10.471l-0.451,244.299l-74.499,10.467L1929.746,2011.519z M1990.476,2232.831
					l0.398-215.473l-47.792,6.715l-0.401,215.475L1990.476,2232.831"/>
			</g>
		</g>
	</g>
</g>
<g>
	<g>
		<g enable-background="new    ">
			<g>
				<polygon fill="#0B7069" points="2128.168,2213.53 2042.697,2167.036 2085.62,2161.001 2171.097,2207.497 				"/>
			</g>
			<g>
				<polygon fill="#08514C" points="2171.097,2207.497 2085.62,2161.001 2085.972,1973.665 2171.445,2020.161 				"/>
			</g>
			<g>
				<polygon fill="#0B7069" points="2128.517,2026.196 2043.043,1979.7 2085.972,1973.665 2171.445,2020.161 				"/>
			</g>
			<g>
				<polygon fill="#08514C" points="2128.168,2213.53 2042.697,2167.036 2043.043,1979.7 2128.517,2026.196 				"/>
			</g>
			<g>
				<polygon fill="#0E8B81" points="2171.445,2020.161 2171.097,2207.497 2128.168,2213.53 2128.517,2026.196 				"/>
			</g>
			<g>
				<polygon fill="#08514C" points="2114.806,2229.798 2029.329,2183.302 2029.73,1967.179 2115.21,2013.673 				"/>
			</g>
			<g>
				<polygon fill="#0B7069" points="2115.21,2013.673 2029.73,1967.179 2099.331,1957.396 2184.808,2003.894 				"/>
			</g>
			<g>
				<path fill="#0E8B81" d="M2115.21,2013.673l69.598-9.773l-0.396,216.123l-69.606,9.779L2115.21,2013.673z M2171.097,2207.497
					l0.352-187.336l-42.929,6.035l-0.346,187.334L2171.097,2207.497"/>
			</g>
		</g>
	</g>
</g>
<g>
	<g>
		<g enable-background="new    ">
			<g>
				<polygon fill="#0B7069" points="1847.463,2079.767 1761.983,2033.269 1777.367,2031.106 1862.841,2077.604 				"/>
			</g>
			<g>
				<polygon fill="#08514C" points="1862.841,2077.604 1777.367,2031.106 1777.461,1981.341 1862.935,2027.837 				"/>
			</g>
			<g>
				<polygon fill="#0B7069" points="1847.554,2030.003 1762.08,1983.503 1777.461,1981.341 1862.935,2027.837 				"/>
			</g>
			<g>
				<polygon fill="#08514C" points="1847.463,2079.767 1761.983,2033.269 1762.08,1983.503 1847.554,2030.003 				"/>
			</g>
			<g>
				<polygon fill="#0E8B81" points="1862.935,2027.837 1862.841,2077.604 1847.463,2079.767 1847.554,2030.003 				"/>
			</g>
			<g>
				<polygon fill="#08514C" points="1834.068,2096.04 1748.595,2049.544 1748.741,1970.952 1834.215,2017.448 				"/>
			</g>
			<g>
				<polygon fill="#0B7069" points="1834.215,2017.448 1748.741,1970.952 1790.855,1965.034 1876.329,2011.53 				"/>
			</g>
			<g>
				<path fill="#0E8B81" d="M1834.215,2017.448l42.111-5.918l-0.146,78.592l-42.117,5.918L1834.215,2017.448z M1862.841,2077.604
					l0.094-49.768l-15.381,2.166l-0.091,49.764L1862.841,2077.604"/>
			</g>
		</g>
	</g>
</g>
<g>
	<g>
		<g enable-background="new    ">
			<g>
				<polygon fill="#08514C" points="2250.699,2072.87 2165.223,2026.372 2165.299,1983.837 2250.775,2030.337 				"/>
			</g>
			<g>
				<polygon fill="#0B7069" points="2219.545,2077.249 2134.074,2030.753 2165.223,2026.372 2250.699,2072.87 				"/>
			</g>
			<g>
				<polygon fill="#0B7069" points="2219.627,2034.714 2134.15,1988.216 2165.299,1983.837 2250.775,2030.337 				"/>
			</g>
			<g>
				<polygon fill="#08514C" points="2219.545,2077.249 2134.074,2030.753 2134.15,1988.216 2219.627,2034.714 				"/>
			</g>
			<g>
				<polygon fill="#0E8B81" points="2250.775,2030.337 2250.699,2072.87 2219.545,2077.249 2219.627,2034.714 				"/>
			</g>
			<g>
				<polygon fill="#08514C" points="2206.183,2093.55 2120.709,2047.054 2120.841,1975.659 2206.314,2022.157 				"/>
			</g>
			<g>
				<polygon fill="#0B7069" points="2206.314,2022.157 2120.841,1975.659 2178.696,1967.53 2264.17,2014.026 				"/>
			</g>
			<g>
				<path fill="#0E8B81" d="M2206.314,2022.157l57.855-8.131l-0.135,71.395l-57.855,8.129L2206.314,2022.157z M2250.699,2072.87
					l0.076-42.533l-31.148,4.377l-0.076,42.535L2250.699,2072.87"/>
			</g>
		</g>
	</g>
</g>
<path fill="#109F94" stroke="#109F94" stroke-width="4" stroke-miterlimit="10" d="M1739.305,2026.095h1083.404
	c95.355-131.268,152.104-292.494,153.378-467.104c3.231-444.936-354.858-808.271-799.793-811.498
	c-292.734-2.139-550.128,152.102-692.927,384.639c-38.177,62.174-68.177,129.977-88.424,201.861
	c-19.128,67.875-29.625,139.363-30.152,213.268c-0.226,28.982,1.128,57.633,3.902,85.871c0.264,2.963,0.56,5.924,0.938,8.852
	l364.386,384.799C1735.634,2026.354,1737.386,2026.095,1739.305,2026.095z"/>
<rect x="2043.36" y="1800.648" transform="matrix(0.7034 0.7108 -0.7108 0.7034 1902.524 -924.354)" fill="none" width="31.095" height="33.904"/>
<rect x="2083.05" y="1764.666" transform="matrix(0.7043 0.7099 -0.7099 0.7043 1899.001 -976.2476)" fill="none" width="76.651" height="53.493"/>
<circle fill="#109F94" stroke="#109F94" stroke-miterlimit="10" cx="1468.057" cy="1747.886" r="30.469"/>
<path fill="#E5A228" stroke="#E4EAEA" stroke-width="4" stroke-miterlimit="10" d="M1817.296,1204.78
	c177.158-157.219-46.09-259.998-221.089-84.996c-175.005,174.998-65.001,249.998-65.001,249.998s-184.295,45.141,72.501,67.5
	c256.796,22.363,197.499-35,270-57.5C1946.202,1357.282,1715.879,1294.78,1817.296,1204.78z"/>
<path fill="#E5A228" stroke="#E4EAEA" stroke-width="4" stroke-miterlimit="10" d="M1495.136,1506.03l1.063,164.377
	c0,0,0.003,25.629,81.255,0c81.249-25.627,138.75,13.887,153.75-48.361c15-62.264,60-49.76,60-94.76c0-45.004,0-35.002,0-72.502
	s-317.505,142-295.005,39.75"/>
<ellipse fill="#E5A228" stroke="#E4EAEA" stroke-width="4" stroke-miterlimit="10" cx="1482.456" cy="1470.611" rx="33.75" ry="28.245"/>
<ellipse fill="#E5A228" stroke="#E4EAEA" stroke-width="4" stroke-miterlimit="10" cx="1573.707" cy="1477.154" rx="22.5" ry="17.374"/>
<circle fill="#E5A228" stroke="#E4EAEA" stroke-width="4" stroke-miterlimit="10" cx="1823.501" cy="1652.984" r="93.729"/>
<path fill="#E4EAEA" d="M1800.658,1588.013c-11.78-2.625-16.787,15.451-4.983,18.082c6.466,1.436,45.091,6.422,42.97,15.658
	c-2.449,10.65-21.053,22.576-29.077,28.357c-11.833,8.514-24.902,15.357-37.693,22.283c-10.632,5.766-1.169,21.957,9.46,16.186
	c18.483-10.02,36.404-20.398,52.658-33.828c10.617-8.77,23.329-20.648,23.707-35.385
	C1858.317,1595.114,1816.728,1591.593,1800.658,1588.013z"/>
<path fill="#E4EAEA" d="M1732.206,1677.995c-1.23-4.457-6.803-8.502-11.531-6.545c-6.149,2.557-12.398,4.23-19.069,4.348
	c-12.079,0.213-12.105,18.963,0,18.75c8.3-0.146,16.395-1.846,24.056-5.016C1730.375,1687.575,1733.686,1683.38,1732.206,1677.995z"
	/>
<path fill="#E4EAEA" d="M1922.911,1740.962c-4.251-13.518-22.33-19.174-34.131-23.574c-11.353-4.236-16.207,13.893-4.983,18.082
	c5.739,2.139,19.515,5.639,21.577,12.201c2.039,6.486-8.716,19.893-11.25,25.949c-4.67,11.15,13.479,15.967,18.079,4.988
	C1917.38,1766.255,1927.394,1755.216,1922.911,1740.962z"/>
<path fill="#E4EAEA" d="M1842.271,1790.519c-5.118-3.492-11.71-5.717-16.348-9.783c-6.809-5.979-1.764-20.387,0.032-27.428
	c2.979-11.727-15.103-16.699-18.079-4.988c-3.217,12.656-6.469,27.166,0.214,39.383c5.37,9.814,15.946,13.047,24.721,19.02
	C1842.831,1813.54,1852.194,1797.286,1842.271,1790.519z"/>
<linearGradient id="SVGID_1_" gradientUnits="userSpaceOnUse" x1="467.0723" y1="1268.5371" x2="669.2734" y2="1268.5371" gradientTransform="matrix(1 0 0 1 808 -51)">
	<stop  offset="0" style="stop-color:#FFFFFF"/>
	<stop  offset="0.0012" style="stop-color:#FEFFFE"/>
	<stop  offset="0.0529" style="stop-color:#CCEBE8"/>
	<stop  offset="0.1069" style="stop-color:#A0D9D5"/>
	<stop  offset="0.1652" style="stop-color:#7AC9C3"/>
	<stop  offset="0.2268" style="stop-color:#59BCB5"/>
	<stop  offset="0.2927" style="stop-color:#3EB2A9"/>
	<stop  offset="0.3645" style="stop-color:#2AA99F"/>
	<stop  offset="0.4453" style="stop-color:#1BA399"/>
	<stop  offset="0.5423" style="stop-color:#13A095"/>
	<stop  offset="0.6995" style="stop-color:#109F94"/>
</linearGradient>
<path fill="url(#SVGID_1_)" d="M1477.273,1134.007c-38.177,62.174-68.177,129.977-88.424,201.861
	c-63.226-2.398-113.777-54.41-113.777-118.273c0-65.365,53.024-118.389,118.389-118.389
	C1426.235,1099.206,1455.86,1112.519,1477.273,1134.007z"/>
<linearGradient id="SVGID_2_" gradientUnits="userSpaceOnUse" x1="397.0879" y1="1215.2217" x2="527.084" y2="1215.2217" gradientTransform="matrix(1 0 0 1 808 -51)">
	<stop  offset="0" style="stop-color:#FFFFFF"/>
	<stop  offset="0.0012" style="stop-color:#FEFFFE"/>
	<stop  offset="0.0529" style="stop-color:#CCEBE8"/>
	<stop  offset="0.1069" style="stop-color:#A0D9D5"/>
	<stop  offset="0.1652" style="stop-color:#7AC9C3"/>
	<stop  offset="0.2268" style="stop-color:#59BCB5"/>
	<stop  offset="0.2927" style="stop-color:#3EB2A9"/>
	<stop  offset="0.3645" style="stop-color:#2AA99F"/>
	<stop  offset="0.4453" style="stop-color:#1BA399"/>
	<stop  offset="0.5423" style="stop-color:#13A095"/>
	<stop  offset="0.6995" style="stop-color:#109F94"/>
</linearGradient>
<circle fill="url(#SVGID_2_)" cx="1270.086" cy="1164.222" r="64.998"/>
<linearGradient id="SVGID_3_" gradientUnits="userSpaceOnUse" x1="339.5898" y1="1211.4717" x2="432.0859" y2="1211.4717" gradientTransform="matrix(1 0 0 1 808 -51)">
	<stop  offset="0" style="stop-color:#FFFFFF"/>
	<stop  offset="0.0012" style="stop-color:#FEFFFE"/>
	<stop  offset="0.0529" style="stop-color:#CCEBE8"/>
	<stop  offset="0.1069" style="stop-color:#A0D9D5"/>
	<stop  offset="0.1652" style="stop-color:#7AC9C3"/>
	<stop  offset="0.2268" style="stop-color:#59BCB5"/>
	<stop  offset="0.2927" style="stop-color:#3EB2A9"/>
	<stop  offset="0.3645" style="stop-color:#2AA99F"/>
	<stop  offset="0.4453" style="stop-color:#1BA399"/>
	<stop  offset="0.5423" style="stop-color:#13A095"/>
	<stop  offset="0.6995" style="stop-color:#109F94"/>
</linearGradient>
<path fill="url(#SVGID_3_)" d="M1193.838,1114.224c25.541,0,46.248,20.703,46.248,46.248c0,25.541-20.707,46.248-46.248,46.248
	c-25.544,0-46.248-20.707-46.248-46.248C1147.59,1134.927,1168.294,1114.224,1193.838,1114.224z"/>
<linearGradient id="SVGID_4_" gradientUnits="userSpaceOnUse" x1="312.0859" y1="1238.9697" x2="367.082" y2="1238.9697" gradientTransform="matrix(1 0 0 1 808 -51)">
	<stop  offset="0" style="stop-color:#FFFFFF"/>
	<stop  offset="0.0012" style="stop-color:#FEFFFE"/>
	<stop  offset="0.0529" style="stop-color:#CCEBE8"/>
	<stop  offset="0.1069" style="stop-color:#A0D9D5"/>
	<stop  offset="0.1652" style="stop-color:#7AC9C3"/>
	<stop  offset="0.2268" style="stop-color:#59BCB5"/>
	<stop  offset="0.2927" style="stop-color:#3EB2A9"/>
	<stop  offset="0.3645" style="stop-color:#2AA99F"/>
	<stop  offset="0.4453" style="stop-color:#1BA399"/>
	<stop  offset="0.5423" style="stop-color:#13A095"/>
	<stop  offset="0.6995" style="stop-color:#109F94"/>
</linearGradient>
<circle fill="url(#SVGID_4_)" cx="1147.584" cy="1187.97" r="27.498"/>
<circle fill="#110B01" cx="1459.063" cy="1751.987" r="10.359"/>
<path opacity="0.7" fill="#E5A228" enable-background="new    " d="M1461.819,1759.136c-27.448-3.041-50.323-15.256-75.861-24.563
	c-32.663-11.93-59.177-7.313-89.399,9.523c-22.465,12.49-44.063,27.268-67.875,37.164c-26.364,10.951-53.438,14.473-81.864,12.861
	c-44.514-2.465-101.288-14.549-115.389-64.125c-8.174-28.615-14.848-88.652,26.402-94.428c2.25-0.295,4.125,0.598,5.361,1.979
	c-0.073-0.674-0.114-1.336-0.114-2.025c0-14.502,11.739-26.25,26.25-26.25c14.514,0,26.25,11.748,26.25,26.25
	c0,14.477-11.736,26.25-26.25,26.25c-11.549,0-21.337-7.453-24.861-17.813c-0.563,1.24-1.761,2.225-3.636,2.477
	c-24.715,3.451-25.125,33.148-23.364,52.883c1.957,22.24,7.614,44.617,26.139,59.063c37.649,29.406,104.851,32.473,148.535,17.219
	c42.527-14.893,79.201-53.256,124.503-59.063c45.261-5.818,81.524,26.504,125.174,31.348
	C1468.941,1748.677,1469.015,1759.927,1461.819,1759.136z"/>
<circle cx="1820.533" cy="2063.229" r="8.072"/>
<circle cx="1804.385" cy="2047.292" r="8.072"/>
<path fill="#109F94" d="M1823.398,2063.784c1.934-1.406,0.067-4.666-1.893-3.236c-17.203,12.535-26.877,27.527-16.573,47.801
	c4.295,8.461,10.189,16.014,13.333,25.043c4.356,12.527-1.594,23.508-10.263,32.449c-1.682,1.734,0.97,4.391,2.651,2.65
	c14.833-15.318,15.486-30.938,5.162-48.887c-4.377-7.609-9.615-14.906-11.593-23.605
	C1801.045,2082.024,1813.341,2071.112,1823.398,2063.784z"/>
<path fill="#109F94" d="M1802.738,2046.714c-12.855,19.689-29.188,35.918-54.029,35.678c-22.723-0.221-42.173-13.406-64.181-16.148
	c-39.94-4.967-30.261,48.715-30.167,73.289c0.006,2.416,3.756,2.416,3.75,0c-0.073-18.209-3.146-37.963,1.805-55.752
	c6.75-24.252,35.666-10.873,51.501-5.566c16.854,5.65,35.013,10.482,52.743,6.27c18.697-4.451,31.828-20.564,41.821-35.875
	C1807.3,2046.573,1804.054,2044.694,1802.738,2046.714z"/>
<circle fill="#109F94" cx="1657.742" cy="2146.724" r="9.375"/>
<path fill="#109F94" d="M1800.705,2165.179c8.098,0,14.666,6.564,14.666,14.666c0,8.1-6.568,14.666-14.666,14.666
	c-8.104,0-14.669-6.566-14.669-14.666C1786.036,2171.743,1792.602,2165.179,1800.705,2165.179z"/>
</svg>
