<?xml version="1.0" encoding="utf-8"?>
<!-- Generator: Adobe Illustrator 16.0.0, SVG Export Plug-In . SVG Version: 6.00 Build 0)  -->
<!DOCTYPE svg PUBLIC "-//W3C//DTD SVG 1.1//EN" "http://www.w3.org/Graphics/SVG/1.1/DTD/svg11.dtd">
<svg version="1.1" id="Layer_1" xmlns="http://www.w3.org/2000/svg" xmlns:xlink="http://www.w3.org/1999/xlink" x="0px" y="0px"
	 width="960px" height="560px" viewBox="0 0 960 560" enable-background="new 0 0 960 560" xml:space="preserve">
<path fill="#01876A" stroke="#109F94" stroke-width="4" stroke-miterlimit="10" d="M651.81,294.939
	C650.94,413.59,554.06,509.08,435.4,508.21c-9.74-0.07-19.33-0.79-28.721-2.12c-1.67-0.229-3.33-0.479-4.989-0.76L223.42,317.07
	c-0.1-0.78-0.18-1.57-0.25-2.36c-0.74-7.53-1.1-15.17-1.04-22.899c0.14-19.709,2.94-38.771,8.04-56.871
	c5.4-19.17,13.4-37.25,23.58-53.83C291.83,119.1,360.47,77.97,438.53,78.54C557.18,79.4,652.67,176.29,651.81,294.939z"/>
<path fill="#109F94" d="M253.75,181.11c-10.18,16.58-18.18,34.66-23.58,53.83c-16.86-0.64-30.34-14.51-30.34-31.54
	c0-17.43,14.14-31.57,31.57-31.57C240.14,171.83,248.04,175.38,253.75,181.11z"/>
<circle fill="#109F94" cx="198.5" cy="189.167" r="17.333"/>
<circle fill="#109F94" cx="178.167" cy="188.167" r="12.333"/>
<circle fill="#109F94" cx="165.833" cy="195.5" r="7.333"/>
<rect x="223.304" y="328.784" transform="matrix(0.712 -0.7022 0.7022 0.712 -169.9807 258.7898)" fill="#109F94" width="14.341" height="15.636"/>
<rect x="224.158" y="351.076" transform="matrix(0.7103 -0.7039 0.7039 0.7103 -185.7465 275.5075)" fill="#109F94" width="35.341" height="24.666"/>
<path fill="#E5A228" stroke="#E4EAEA" stroke-width="4" stroke-miterlimit="10" d="M356.852,218.895
	c47.242-41.925-12.291-69.333-58.957-22.666c-46.668,46.667-17.334,66.667-17.334,66.667s-49.145,12.037,19.334,18
	s52.666-9.334,72-15.334C391.227,259.562,329.807,242.895,356.852,218.895z"/>
<path fill="#E5A228" stroke="#E4EAEA" stroke-width="4" stroke-miterlimit="10" d="M274.227,306.956"/>
<path fill="#E5A228" stroke="#E4EAEA" stroke-width="4" stroke-miterlimit="10" d="M270.942,299.229l0.284,43.834
	c0,0,0.001,6.834,21.668,0c21.666-6.834,37,3.703,41-12.898c4-16.603,16-13.269,16-25.269s0-9.334,0-19.334
	s-84.668,37.867-78.668,10.6"/>
<line fill="#01876A" stroke="#E4EAEA" stroke-width="4" stroke-miterlimit="10" x1="647.295" y1="361.485" x2="651.924" y2="394.235"/>
<ellipse fill="#E5A228" stroke="#E4EAEA" stroke-width="4" stroke-miterlimit="10" cx="267.561" cy="289.782" rx="9" ry="7.532"/>
<ellipse fill="#E5A228" stroke="#E4EAEA" stroke-width="4" stroke-miterlimit="10" cx="291.895" cy="291.528" rx="6" ry="4.633"/>
<circle fill="#E5A228" stroke="#E4EAEA" stroke-width="4" stroke-miterlimit="10" cx="358.506" cy="338.415" r="24.994"/>
<path fill="#E4EAEA" d="M352.415,321.089c-3.141-0.699-4.476,4.121-1.329,4.822c1.724,0.384,12.024,1.714,11.458,4.176
	c-0.652,2.84-5.613,6.019-7.753,7.56c-3.156,2.272-6.641,4.095-10.052,5.945c-2.835,1.537-0.311,5.854,2.523,4.316
	c4.929-2.673,9.708-5.439,14.042-9.021c2.831-2.339,6.221-5.506,6.322-9.437C367.791,322.984,356.699,322.044,352.415,321.089z"/>
<path fill="#E4EAEA" d="M334.161,345.085c-0.328-1.19-1.814-2.268-3.075-1.746c-1.64,0.68-3.306,1.13-5.085,1.161
	c-3.221,0.057-3.226,5.057,0,5c2.213-0.039,4.372-0.493,6.415-1.339C333.673,347.64,334.556,346.522,334.161,345.085z"/>
<path fill="#E4EAEA" d="M385.016,361.876c-1.134-3.606-5.955-5.113-9.102-6.287c-3.027-1.129-4.322,3.706-1.329,4.822
	c1.531,0.57,5.204,1.505,5.754,3.254c0.544,1.73-2.324,5.305-3,6.92c-1.245,2.974,3.595,4.258,4.821,1.33
	C383.541,368.62,386.211,365.677,385.016,361.876z"/>
<path fill="#E4EAEA" d="M363.512,375.092c-1.365-0.932-3.123-1.528-4.36-2.612c-1.815-1.592-0.47-5.433,0.009-7.314
	c0.795-3.127-4.027-4.453-4.821-1.33c-0.858,3.374-1.725,7.244,0.057,10.502c1.432,2.617,4.252,3.477,6.592,5.071
	C363.661,381.23,366.158,376.896,363.512,375.092z"/>
</svg>
