<?xml version="1.0" encoding="utf-8"?>
<!-- Generator: Adobe Illustrator 16.0.0, SVG Export Plug-In . SVG Version: 6.00 Build 0)  -->
<!DOCTYPE svg PUBLIC "-//W3C//DTD SVG 1.1//EN" "http://www.w3.org/Graphics/SVG/1.1/DTD/svg11.dtd">
<svg version="1.1" id="Layer_1" xmlns="http://www.w3.org/2000/svg" xmlns:xlink="http://www.w3.org/1999/xlink" x="0px" y="0px"
	 width="960px" height="560px" viewBox="0 0 960 560" enable-background="new 0 0 960 560" xml:space="preserve">
<path fill="#109F94" stroke="#109F94" stroke-width="4" stroke-miterlimit="10" d="M651.811,294.939
	c-0.871,118.65-97.75,214.141-216.41,213.271c-9.74-0.07-19.33-0.79-28.723-2.12c-1.67-0.229-3.33-0.479-4.988-0.76L223.42,317.07
	c-0.1-0.78-0.18-1.57-0.25-2.36c-0.74-7.53-1.1-15.17-1.04-22.899c0.14-19.708,2.94-38.771,8.04-56.871
	c5.4-19.17,13.4-37.25,23.58-53.83C291.83,119.1,360.47,77.97,438.53,78.54C557.18,79.4,652.67,176.29,651.811,294.939z"/>
<rect x="403.082" y="359.345" transform="matrix(-0.7034 -0.7107 0.7107 -0.7034 435.073 909.2628)" fill="none" width="8.292" height="9.042"/>
<rect x="413.698" y="349.781" transform="matrix(-0.7043 -0.7099 0.7099 -0.7043 469.0973 909.2308)" fill="none" width="20.441" height="14.265"/>
<path opacity="0.5" fill="#109F94" stroke="#109F94" stroke-width="0.25" stroke-miterlimit="10" d="M249.667,348.311
	c-7.32-0.811-13.42-4.07-20.23-6.55c-8.71-3.181-15.78-1.95-23.84,2.54c-5.99,3.33-11.75,7.27-18.1,9.91
	c-7.03,2.92-14.25,3.859-21.83,3.43c-11.87-0.66-27.01-3.88-30.77-17.1c-2.18-7.631-3.96-23.641,7.04-25.181
	c0.6-0.079,1.1,0.16,1.43,0.53c-0.02-0.18-0.03-0.359-0.03-0.54c0-3.87,3.13-7,7-7s7,3.13,7,7c0,3.86-3.13,7-7,7
	c-3.08,0-5.69-1.99-6.63-4.75c-0.15,0.33-0.47,0.59-0.97,0.66c-6.59,0.92-6.7,8.84-6.23,14.1c0.52,5.931,2.03,11.9,6.97,15.75
	c10.04,7.841,27.96,8.66,39.61,4.591c11.34-3.971,21.12-14.201,33.2-15.75c12.07-1.551,21.74,7.069,33.38,8.359
	C251.566,345.521,251.586,348.521,249.667,348.311z"/>
<circle opacity="0.3" fill="#109F94" stroke="#109F94" stroke-width="4" stroke-miterlimit="10" cx="97.5" cy="149.5" r="5"/>
<circle opacity="0.2" fill="#109F94" stroke="#109F94" stroke-width="4" stroke-miterlimit="10" cx="90.167" cy="248.167" r="2.333"/>
<circle fill="#109F94" stroke="#109F94" stroke-miterlimit="10" cx="249.667" cy="345.311" r="8.125"/>
<path fill="#E5A228" stroke="#E4EAEA" stroke-width="4" stroke-miterlimit="10" d="M342.798,200.483
	c47.242-41.925-12.291-69.333-58.957-22.666c-46.668,46.667-17.334,66.667-17.334,66.667s-49.145,12.037,19.334,18
	c68.479,5.963,52.666-9.334,72-15.334C377.173,241.15,315.753,224.483,342.798,200.483z"/>
<path fill="#E5A228" stroke="#E4EAEA" stroke-width="4" stroke-miterlimit="10" d="M256.888,280.816l0.284,43.834
	c0,0,0.001,6.834,21.668,0c21.666-6.834,37,3.703,41-12.896c4-16.604,16-13.27,16-25.27c0-12,0-9.333,0-19.333
	c0-10-84.668,37.867-78.668,10.6"/>
<ellipse fill="#E5A228" stroke="#E4EAEA" stroke-width="4" stroke-miterlimit="10" cx="253.507" cy="271.371" rx="9" ry="7.532"/>
<ellipse fill="#E5A228" stroke="#E4EAEA" stroke-width="4" stroke-miterlimit="10" cx="277.841" cy="273.116" rx="6" ry="4.633"/>
<circle fill="#E5A228" stroke="#E4EAEA" stroke-width="4" stroke-miterlimit="10" cx="344.452" cy="320.004" r="24.994"/>
<path fill="#E4EAEA" d="M338.361,302.678c-3.141-0.699-4.476,4.121-1.329,4.822c1.724,0.383,12.024,1.713,11.458,4.176
	c-0.652,2.84-5.613,6.018-7.753,7.559c-3.156,2.273-6.641,4.096-10.052,5.945c-2.835,1.537-0.312,5.855,2.523,4.316
	c4.929-2.672,9.708-5.439,14.042-9.021c2.831-2.338,6.221-5.506,6.322-9.436C353.737,304.572,342.646,303.633,338.361,302.678z"/>
<path fill="#E4EAEA" d="M320.107,326.674c-0.328-1.191-1.814-2.268-3.075-1.746c-1.64,0.68-3.306,1.129-5.085,1.16
	c-3.221,0.057-3.226,5.057,0,5c2.213-0.039,4.372-0.492,6.415-1.338C319.619,329.229,320.502,328.109,320.107,326.674z"/>
<path fill="#E4EAEA" d="M370.962,343.465c-1.134-3.607-5.955-5.113-9.102-6.287c-3.027-1.129-4.322,3.705-1.329,4.822
	c1.531,0.57,5.204,1.504,5.754,3.254c0.544,1.729-2.324,5.305-3,6.92c-1.245,2.973,3.595,4.258,4.821,1.33
	C369.487,350.209,372.157,347.266,370.962,343.465z"/>
<path fill="#E4EAEA" d="M349.458,356.68c-1.365-0.932-3.123-1.527-4.36-2.611c-1.815-1.592-0.47-5.434,0.009-7.314
	c0.795-3.127-4.027-4.453-4.821-1.33c-0.858,3.375-1.725,7.244,0.057,10.502c1.432,2.617,4.252,3.479,6.592,5.072
	C349.607,362.818,352.104,358.484,349.458,356.68z"/>
<path fill="#109F94" d="M252.125,181.61c-10.18,16.58-18.18,34.66-23.58,53.83c-16.86-0.64-30.34-14.51-30.34-31.54
	c0-17.43,14.14-31.57,31.57-31.57C238.515,172.33,246.415,175.88,252.125,181.61z"/>
<circle fill="#109F94" cx="196.875" cy="189.667" r="17.333"/>
<circle fill="#109F94" cx="176.542" cy="188.667" r="12.333"/>
<circle fill="#109F94" cx="164.208" cy="196" r="7.333"/>
</svg>
