<?xml version="1.0" encoding="utf-8"?>
<!-- Generator: Adobe Illustrator 16.0.0, SVG Export Plug-In . SVG Version: 6.00 Build 0)  -->
<!DOCTYPE svg PUBLIC "-//W3C//DTD SVG 1.1//EN" "http://www.w3.org/Graphics/SVG/1.1/DTD/svg11.dtd">
<svg version="1.1" xmlns="http://www.w3.org/2000/svg" xmlns:xlink="http://www.w3.org/1999/xlink" x="0px" y="0px" width="1600px"
	 height="1200px" viewBox="0 0 1600 1200" enable-background="new 0 0 1600 1200" xml:space="preserve">
<g id="Layer_1">
	<g opacity="0.7">
		<g>
			<g enable-background="new    ">
				<g>
					<polygon opacity="0.2" fill="#095D95" points="1074.45,244.046 1102.402,257.444 1092.564,335.721 1064.233,323.893 					"/>
				</g>
				<g>
					<polygon opacity="0.2" fill="#053250" points="1064.233,323.893 1092.564,335.721 1030.482,338.789 1001.615,327.332 					"/>
				</g>
				<g>
					<polygon opacity="0.2" fill="#074B77" points="1011.937,249.535 1074.45,244.046 1064.233,323.893 1001.615,327.332 					"/>
				</g>
			</g>
			<g enable-background="new    ">
				<g>
					<polygon opacity="0.2" fill="#085182" points="1050.366,489.605 1079.424,498.139 1067.005,597.403 1037.458,590.948 					"/>
				</g>
				<g>
					<polygon opacity="0.2" fill="#052C46" points="1037.458,590.948 1067.005,597.403 990.996,592.926 960.814,586.586 					"/>
				</g>
				<g>
					<polygon opacity="0.2" fill="#074168" points="973.869,488.523 1050.366,489.605 1037.458,590.948 960.814,586.586 					"/>
				</g>
			</g>
			<g enable-background="new    ">
				<g>
					<polygon opacity="0.2" fill="#0B6BAB" points="1068.819,649.076 1098.279,654.406 1081.203,794.079 1051.051,791.803 					"/>
				</g>
				<g>
					<polygon opacity="0.2" fill="#095689" points="963.15,640.588 1068.819,649.076 1051.051,791.803 945.107,776.896 					"/>
				</g>
			</g>
			<g enable-background="new    ">
				<g>
					<polygon opacity="0.2" fill="#095C94" points="1199.416,281.265 1226.245,294.617 1214.359,397.224 1187.049,386.061 					"/>
				</g>
				<g>
					<polygon opacity="0.2" fill="#053250" points="1187.049,386.061 1214.359,397.224 1129.812,399.168 1101.6,388.425 					"/>
				</g>
				<g>
					<polygon opacity="0.2" fill="#074B77" points="1114.206,287.132 1199.416,281.265 1187.049,386.061 1101.6,388.425 					"/>
				</g>
			</g>
			<g enable-background="new    ">
				<g>
					<polygon opacity="0.2" fill="#095C94" points="1200.619,427.762 1227.911,438.119 1214.484,555.436 1186.639,547.661 					"/>
				</g>
				<g>
					<polygon opacity="0.2" fill="#053250" points="1186.639,547.661 1214.484,555.436 1119.256,551.721 1090.384,544.161 					"/>
				</g>
				<g>
					<polygon opacity="0.2" fill="#074B77" points="1104.668,428.818 1200.619,427.762 1186.639,547.661 1090.384,544.161 					"/>
				</g>
			</g>
			<g enable-background="new    ">
				<g>
					<polygon opacity="0.2" fill="#084E7C" points="1411.404,235.794 1435.364,251.25 1418.194,422.548 1393.496,411.043 					"/>
				</g>
				<g>
					<polygon opacity="0.2" fill="#052C46" points="1393.496,411.043 1418.194,422.548 1268.597,424.359 1241.84,413.535 					"/>
				</g>
				<g>
					<polygon opacity="0.2" fill="#074168" points="1260.665,247.868 1411.404,235.794 1393.496,411.043 1241.84,413.535 					"/>
				</g>
			</g>
			<g enable-background="new    ">
				<g>
					<polygon opacity="0.2" fill="#084D7C" points="1417.858,516.624 1442.471,525.809 1422.698,728.272 1397.205,724.042 					"/>
				</g>
				<g>
					<polygon opacity="0.2" fill="#052C46" points="1397.205,724.042 1422.698,728.272 1250.703,711.29 1222.783,706.929 					"/>
				</g>
				<g>
					<polygon opacity="0.2" fill="#074168" points="1244.639,512.801 1417.858,516.624 1397.205,724.042 1222.783,706.929 					"/>
				</g>
			</g>
		</g>
	</g>
	<g opacity="0.7">
		<g>
			<g enable-background="new    ">
				<g>
					<polygon opacity="0.2" fill="#074873" points="522.13,598.194 493.808,588.161 511.945,417.737 541.069,424.158 					"/>
				</g>
				<g>
					<polygon opacity="0.2" fill="#084974" points="541.069,424.158 511.945,417.737 643.052,422.613 673.329,428.787 					"/>
				</g>
				<g>
					<polygon opacity="0.2" fill="#0B68A7" points="673.329,428.787 653.648,593.447 522.13,598.194 541.069,424.158 					"/>
				</g>
			</g>
			<g enable-background="new    ">
				<g>
					<polygon opacity="0.2" fill="#084A76" points="631.021,376.623 600.887,371.388 620.186,200.847 651.158,202.46 					"/>
				</g>
				<g>
					<polygon opacity="0.2" fill="#0B68A7" points="775.413,218.845 754.713,383.621 631.021,376.623 651.158,202.46 					"/>
				</g>
			</g>
			<g enable-background="new    ">
				<g>
					<polygon opacity="0.2" fill="#07436B" points="297.838,845.113 272.88,828.917 288.855,651.732 314.564,664.027 					"/>
				</g>
				<g>
					<polygon opacity="0.2" fill="#095587" points="314.564,664.027 288.855,651.732 439.987,643.744 467.554,655.156 					"/>
				</g>
				<g>
					<polygon opacity="0.2" fill="#0B68A7" points="467.554,655.156 449.628,826.118 297.838,845.113 314.564,664.027 					"/>
				</g>
			</g>
			<g enable-background="new    ">
				<g>
					<polygon opacity="0.2" fill="#07436B" points="319.971,605.49 294.018,594.482 310.628,410.251 337.378,417.03 					"/>
				</g>
				<g>
					<polygon opacity="0.2" fill="#084974" points="337.378,417.03 310.628,410.251 463.337,415.93 491.956,422.439 					"/>
				</g>
				<g>
					<polygon opacity="0.2" fill="#0B68A7" points="491.956,422.439 473.342,599.955 319.971,605.49 337.378,417.03 					"/>
				</g>
			</g>
			<g enable-background="new    ">
				<g>
					<polygon opacity="0.2" fill="#07456F" points="450.45,366.407 422.112,361.009 440.25,177.31 469.439,178.499 					"/>
				</g>
				<g>
					<polygon opacity="0.2" fill="#0B68A7" points="613.252,197.462 593.321,374.49 450.45,366.407 469.439,178.499 					"/>
				</g>
			</g>
			<g enable-background="new    ">
				<g>
					<polygon opacity="0.2" fill="#063D62" points="54.221,875.601 33.027,857.221 46.584,664.539 68.474,678.296 					"/>
				</g>
				<g>
					<polygon opacity="0.2" fill="#095587" points="68.474,678.296 46.584,664.539 225.26,655.094 250.067,667.767 					"/>
				</g>
				<g>
					<polygon opacity="0.2" fill="#0B68A7" points="250.067,667.767 233.924,853.111 54.221,875.601 68.474,678.296 					"/>
				</g>
			</g>
			<g enable-background="new    ">
				<g>
					<polygon opacity="0.2" fill="#063D62" points="91.389,346.092 68.322,340.468 83.071,130.585 106.93,130.698 					"/>
				</g>
				<g>
					<polygon opacity="0.2" fill="#0B68A7" points="293.733,155.33 276.224,356.55 91.389,346.092 106.93,130.698 					"/>
				</g>
			</g>
		</g>
	</g>
	<g opacity="0.2">
		<g>
			<g enable-background="new    ">
				<g enable-background="new    ">
					<defs>
						<path id="SVGID_1_" enable-background="new    " d="M179.856,456.098c6.399,1.585,12.797,3.169,19.196,4.754
							c1.129,0.28,2.258,0.56,3.388,0.839c-3.946-0.978-8.146-1.222-12.468-0.614l-22.583-5.594
							C171.711,454.876,175.91,455.12,179.856,456.098z"/>
					</defs>
					<clipPath id="SVGID_2_">
						<use xlink:href="#SVGID_1_"  overflow="visible"/>
					</clipPath>
					<g clip-path="url(#SVGID_2_)" enable-background="new    ">
						<path fill="#07456E" d="M189.972,461.077l-22.583-5.594c4.322-0.607,8.521-0.363,12.468,0.614l22.584,5.594
							C198.494,460.714,194.294,460.47,189.972,461.077"/>
					</g>
				</g>
				<g enable-background="new    ">
					<defs>
						<path id="SVGID_3_" enable-background="new    " d="M182.599,541.797c-7.528-1.865-15.056-3.729-22.584-5.594
							c-14.568-3.608-25.688-17.218-26.794-34.889c-1.406-22.465,13.893-42.981,34.167-45.831l22.583,5.594
							c-20.274,2.85-35.573,23.366-34.167,45.831C156.911,524.579,168.03,538.188,182.599,541.797z"/>
					</defs>
					<clipPath id="SVGID_4_">
						<use xlink:href="#SVGID_3_"  overflow="visible"/>
					</clipPath>
					<g clip-path="url(#SVGID_4_)" enable-background="new    ">
						<path fill="#063C60" d="M182.599,541.797l-22.584-5.594c-14.568-3.608-25.688-17.218-26.794-34.889
							c-0.45-7.198,0.814-14.195,3.407-20.476l22.584,5.594c-2.593,6.28-3.858,13.278-3.407,20.476
							C156.911,524.579,168.03,538.188,182.599,541.797"/>
						<path fill="#063E63" d="M159.212,486.433l-22.584-5.594c1.206-2.919,2.698-5.684,4.439-8.241l22.583,5.594
							C161.91,480.749,160.417,483.513,159.212,486.433"/>
						<path fill="#074067" d="M163.651,478.191l-22.583-5.594c1.612-2.369,3.438-4.56,5.445-6.533l22.584,5.594
							C167.089,473.631,165.263,475.823,163.651,478.191"/>
						<path fill="#07436B" d="M169.096,471.659l-22.584-5.594c2.252-2.212,4.733-4.15,7.399-5.754l22.584,5.594
							C173.829,467.509,171.348,469.446,169.096,471.659"/>
						<path fill="#07456E" d="M176.496,465.905l-22.584-5.594c4.105-2.469,8.65-4.149,13.477-4.828l22.583,5.594
							C185.145,461.756,180.6,463.436,176.496,465.905"/>
					</g>
				</g>
				<g>
					<path fill="#0B69A8" d="M189.972,461.077c20.283-2.851,37.859,13.046,39.264,35.511c1.405,22.456-13.893,42.972-34.175,45.823
						c-20.275,2.849-37.851-13.047-39.256-35.502C154.399,484.443,169.698,463.927,189.972,461.077z"/>
				</g>
			</g>
		</g>
	</g>
	<g>
		<g opacity="0.2">
			<g>
				<path fill="#FFA500" d="M812.467,308.649c-131.911-13.255-263.822-26.509-395.733-39.764
					c-131.25-13.188-262.501-26.376-393.752-39.565c-1.925-0.193-1.906,2.809,0,3c131.911,13.255,263.822,26.509,395.733,39.764
					c131.25,13.188,262.501,26.376,393.752,39.565C814.392,311.843,814.373,308.841,812.467,308.649L812.467,308.649z"/>
			</g>
		</g>
		<g opacity="0.2">
			<g>
				<path fill="#FFA500" d="M795.153,512.915c-132.598-3.337-265.195-6.673-397.793-10.01c-38.413-0.967-76.827-1.934-115.24-2.9
					c-1.936-0.049-1.931,2.951,0,3c132.598,3.337,265.195,6.674,397.793,10.011c38.414,0.967,76.827,1.933,115.24,2.9
					C797.089,515.963,797.084,512.963,795.153,512.915L795.153,512.915z"/>
			</g>
		</g>
		<g opacity="0.2">
			<g>
				<path fill="#FFA500" d="M579.49,747.044c-132.133,12.204-264.267,24.407-396.4,36.611
					c-53.471,4.938-106.942,9.878-160.414,14.816c-1.91,0.177-1.927,3.178,0,3c132.133-12.205,264.267-24.408,396.4-36.612
					c53.471-4.938,106.942-9.877,160.414-14.815C581.399,749.867,581.417,746.866,579.49,747.044L579.49,747.044z"/>
			</g>
		</g>
		<g opacity="0.2">
			<g>
				<path fill="#FFA500" d="M484.386,103.595c-12.753,131.96-25.505,263.921-38.258,395.881
					c-12.689,131.299-25.377,262.599-38.066,393.899c-0.186,1.926,2.815,1.908,3,0c12.753-131.96,25.505-263.92,38.258-395.88
					c12.689-131.3,25.377-262.6,38.066-393.9C487.572,101.669,484.571,101.687,484.386,103.595L484.386,103.595z"/>
			</g>
		</g>
		<g opacity="0.2">
			<g>
				<path fill="#FFA500" d="M599.387,122.594c-12.777,132.209-25.554,264.418-38.331,396.627
					c-4.723,48.875-9.446,97.749-14.169,146.624c-0.186,1.926,2.815,1.908,3,0c12.776-132.209,25.553-264.418,38.33-396.627
					c4.724-48.875,9.447-97.75,14.17-146.625C602.573,120.668,599.571,120.687,599.387,122.594L599.387,122.594z"/>
			</g>
		</g>
	</g>
</g>
<g id="Layer_1_copy_3" display="none">
	<g display="inline" opacity="0.7">
		<g>
			<g enable-background="new    ">
				<g>
					<polygon opacity="0.2" fill="#063A5D" points="1277.661,521.377 1249.09,512.958 1388.324,516.19 1418.137,524.191 					"/>
				</g>
				<g>
					<polygon opacity="0.2" fill="#063657" points="1255.154,704.347 1227.444,692.16 1249.09,512.958 1277.661,521.377 					"/>
				</g>
				<g>
					<polygon opacity="0.2" fill="#084F7E" points="1277.661,521.377 1418.137,524.191 1395.09,696.732 1255.154,704.347 					"/>
				</g>
			</g>
			<g enable-background="new    ">
				<g>
					<polygon opacity="0.2" fill="#063656" points="1276.642,422.685 1247.736,416.31 1267.842,248.49 1297.569,251.163 					"/>
				</g>
				<g>
					<polygon opacity="0.2" fill="#084F7E" points="1297.569,251.163 1426.051,268.093 1404.683,430.426 1276.642,422.685 					"/>
				</g>
			</g>
			<g enable-background="new    ">
				<g>
					<polygon opacity="0.2" fill="#063F65" points="1132.14,428.763 1104.938,421.891 1207.951,427.738 1236.384,434.465 					"/>
				</g>
				<g>
					<polygon opacity="0.2" fill="#063B5F" points="1117.971,556.036 1091.344,546.329 1104.938,421.891 1132.14,428.763 					"/>
				</g>
				<g>
					<polygon opacity="0.2" fill="#095A91" points="1132.14,428.763 1236.384,434.465 1221.831,556.6 1117.971,556.036 					"/>
				</g>
			</g>
			<g enable-background="new    ">
				<g>
					<polygon opacity="0.2" fill="#063B5E" points="1127.626,382.125 1100.339,376.285 1112.854,260.958 1140.681,264.092 					"/>
				</g>
				<g>
					<polygon opacity="0.2" fill="#095A91" points="1140.681,264.092 1236.125,275.412 1222.75,389.028 1127.626,382.125 					"/>
				</g>
			</g>
			<g enable-background="new    ">
				<g>
					<polygon opacity="0.2" fill="#095487" points="958.479,674.108 934.424,661.141 1069.515,656.74 1095.51,668.962 					"/>
				</g>
				<g>
					<polygon opacity="0.2" fill="#074067" points="942.938,829.18 919.525,812.709 934.424,661.141 958.479,674.108 					"/>
				</g>
				<g>
					<polygon opacity="0.2" fill="#0B68A7" points="958.479,674.108 1095.51,668.962 1079.204,816.483 942.938,829.18 					"/>
				</g>
			</g>
			<g enable-background="new    ">
				<g>
					<polygon opacity="0.2" fill="#06395C" points="962.951,492.587 938.347,483.786 1041.355,486.993 1067.492,495.537 					"/>
				</g>
				<g>
					<polygon opacity="0.2" fill="#05304D" points="951.144,611.602 927.037,600.014 938.347,483.786 962.951,492.587 					"/>
				</g>
				<g>
					<polygon opacity="0.2" fill="#084F7E" points="962.951,492.587 1067.492,495.537 1055.242,610.043 951.144,611.602 					"/>
				</g>
			</g>
			<g enable-background="new    ">
				<g>
					<polygon opacity="0.2" fill="#063859" points="992.513,289.643 966.899,285.721 976.661,186.126 1002.715,187.552 					"/>
				</g>
				<g>
					<polygon opacity="0.2" fill="#095A91" points="1002.715,187.552 1089.542,199.777 1079.043,298.551 992.513,289.643 					"/>
				</g>
			</g>
		</g>
	</g>
	<g display="inline" opacity="0.7">
		<g>
			<g enable-background="new    ">
				<g>
					<polygon opacity="0.2" fill="#0B6CAD" points="293.058,209.313 321.154,223.119 303.156,382.171 274.305,371.503 					"/>
				</g>
				<g>
					<polygon opacity="0.2" fill="#063A5C" points="274.305,371.503 303.156,382.171 181.318,388.611 151.54,378.622 					"/>
				</g>
				<g>
					<polygon opacity="0.2" fill="#095689" points="293.058,209.313 274.305,371.503 151.54,378.622 170.888,224.602 					"/>
				</g>
			</g>
			<g enable-background="new    ">
				<g>
					<polygon opacity="0.2" fill="#0B6CAD" points="243.698,642.416 273.826,647.651 254.531,818.244 223.563,816.633 					"/>
				</g>
				<g>
					<polygon opacity="0.2" fill="#095689" points="243.698,642.416 223.563,816.633 99.229,800.238 119.926,635.414 					"/>
				</g>
			</g>
			<g enable-background="new    ">
				<g>
					<polygon opacity="0.2" fill="#0B69A7" points="593.867,171.669 618.585,188.02 602.765,366.334 577.298,353.935 					"/>
				</g>
				<g>
					<polygon opacity="0.2" fill="#063A5C" points="577.298,353.935 602.765,366.334 449.696,374.425 422.304,362.922 					"/>
				</g>
				<g>
					<polygon opacity="0.2" fill="#095689" points="593.867,171.669 577.298,353.935 422.304,362.922 440.117,190.91 					"/>
				</g>
			</g>
			<g enable-background="new    ">
				<g>
					<polygon opacity="0.2" fill="#0B6AAA" points="464.205,412.849 491.284,423.502 473.948,601.463 446.066,594.753 					"/>
				</g>
				<g>
					<polygon opacity="0.2" fill="#063A5C" points="446.066,594.753 473.948,601.463 331.089,596.37 301.679,589.929 					"/>
				</g>
				<g>
					<polygon opacity="0.2" fill="#095689" points="464.205,412.849 446.066,594.753 301.679,589.929 320.802,418.242 					"/>
				</g>
			</g>
			<g enable-background="new    ">
				<g>
					<polygon opacity="0.2" fill="#0B6AAA" points="440.205,653.534 468.349,658.945 450.336,843.858 421.342,842.712 					"/>
				</g>
				<g>
					<polygon opacity="0.2" fill="#095689" points="440.205,653.534 421.342,842.712 275.662,823.503 295.506,645.348 					"/>
				</g>
			</g>
			<g enable-background="new    ">
				<g>
					<polygon opacity="0.2" fill="#0A639F" points="820.824,143.267 841.999,161.656 828.454,354.404 806.583,340.641 					"/>
				</g>
				<g>
					<polygon opacity="0.2" fill="#063A5C" points="806.583,340.641 828.454,354.404 649.663,363.855 624.87,351.177 					"/>
				</g>
				<g>
					<polygon opacity="0.2" fill="#095689" points="820.824,143.267 806.583,340.641 624.87,351.177 641.004,165.77 					"/>
				</g>
			</g>
			<g enable-background="new    ">
				<g>
					<polygon opacity="0.2" fill="#0B66A4" points="685.988,404.508 710.008,416.26 694.641,609.331 669.846,602.229 					"/>
				</g>
				<g>
					<polygon opacity="0.2" fill="#063A5C" points="669.846,602.229 694.641,609.331 527.086,603.357 499.867,596.55 					"/>
				</g>
				<g>
					<polygon opacity="0.2" fill="#095689" points="685.988,404.508 669.846,602.229 499.867,596.55 517.577,410.842 					"/>
				</g>
			</g>
		</g>
	</g>
</g>
<g id="Layer_1_copy_2" display="none">
	<g display="inline" opacity="0.7">
		<g>
			<g enable-background="new    ">
				<g>
					<polygon opacity="0.2" fill="#063A5D" points="1306.309,521.827 1277.683,513.421 1427.129,516.879 1457.059,524.837 					"/>
				</g>
				<g>
					<polygon opacity="0.2" fill="#063657" points="1281.934,719.303 1254.238,706.842 1277.683,513.421 1306.309,521.827 					"/>
				</g>
				<g>
					<polygon opacity="0.2" fill="#084F7E" points="1306.309,521.827 1457.059,524.837 1432.073,710.227 1281.934,719.303 					"/>
				</g>
			</g>
			<g enable-background="new    ">
				<g>
					<polygon opacity="0.2" fill="#063657" points="1305.275,415.088 1276.286,408.889 1298.135,227.078 1328.018,229.266 					"/>
				</g>
				<g>
					<polygon opacity="0.2" fill="#084F7E" points="1328.018,229.266 1466.106,248.765 1442.877,423.852 1305.275,415.088 					"/>
				</g>
			</g>
			<g enable-background="new    ">
				<g>
					<polygon opacity="0.2" fill="#063F64" points="1148.581,421.207 1121.443,414.49 1233.286,421.146 1261.766,427.721 					"/>
				</g>
				<g>
					<polygon opacity="0.2" fill="#063B5E" points="1133.271,559.484 1106.755,549.676 1121.443,414.49 1148.581,421.207 					"/>
				</g>
				<g>
					<polygon opacity="0.2" fill="#095A91" points="1148.581,421.207 1261.766,427.721 1246.001,559.954 1133.271,559.484 					"/>
				</g>
			</g>
			<g enable-background="new    ">
				<g>
					<polygon opacity="0.2" fill="#063B5E" points="1143.627,370.433 1116.398,364.845 1129.947,239.24 1157.762,241.864 					"/>
				</g>
				<g>
					<polygon opacity="0.2" fill="#095A91" points="1157.762,241.864 1261.539,255.055 1247.02,378.382 1143.627,370.433 					"/>
				</g>
			</g>
			<g enable-background="new    ">
				<g>
					<polygon opacity="0.2" fill="#095588" points="958.974,688.38 935.306,674.988 1083.104,669.489 1108.934,682.032 					"/>
				</g>
				<g>
					<polygon opacity="0.2" fill="#074066" points="942.346,857.092 919.368,839.872 935.306,674.988 958.974,688.38 					"/>
				</g>
				<g>
					<polygon opacity="0.2" fill="#0B68A7" points="958.974,688.38 1108.934,682.032 1091.371,841.838 942.346,857.092 					"/>
				</g>
			</g>
			<g enable-background="new    ">
				<g>
					<polygon opacity="0.2" fill="#06395C" points="963.39,490.431 939.139,481.613 1052.146,485.193 1078.113,493.733 					"/>
				</g>
				<g>
					<polygon opacity="0.2" fill="#05304D" points="950.729,620.326 927.016,608.444 939.139,481.613 963.39,490.431 					"/>
				</g>
				<g>
					<polygon opacity="0.2" fill="#084F7E" points="963.39,490.431 1078.113,493.733 1064.9,618.287 950.729,620.326 					"/>
				</g>
			</g>
			<g enable-background="new    ">
				<g>
					<polygon opacity="0.2" fill="#063759" points="995.429,268.532 970.079,265.1 980.589,155.989 1006.416,156.654 					"/>
				</g>
				<g>
					<polygon opacity="0.2" fill="#095A91" points="1006.416,156.654 1101.813,171.073 1090.442,278.968 995.429,268.532 					"/>
				</g>
			</g>
		</g>
	</g>
	<g display="inline" opacity="0.7">
		<g>
			<g enable-background="new    ">
				<g>
					<polygon opacity="0.2" fill="#0B6CAD" points="293.058,209.313 321.154,223.119 303.156,382.171 274.305,371.503 					"/>
				</g>
				<g>
					<polygon opacity="0.2" fill="#063A5C" points="274.305,371.503 303.156,382.171 181.318,388.611 151.54,378.622 					"/>
				</g>
				<g>
					<polygon opacity="0.2" fill="#095689" points="293.058,209.313 274.305,371.503 151.54,378.622 170.888,224.602 					"/>
				</g>
			</g>
			<g enable-background="new    ">
				<g>
					<polygon opacity="0.2" fill="#0B6CAD" points="243.698,642.416 273.826,647.651 254.531,818.244 223.563,816.633 					"/>
				</g>
				<g>
					<polygon opacity="0.2" fill="#095689" points="243.698,642.416 223.563,816.633 99.229,800.238 119.926,635.414 					"/>
				</g>
			</g>
			<g enable-background="new    ">
				<g>
					<polygon opacity="0.2" fill="#0B69A7" points="593.867,171.669 618.585,188.02 602.765,366.334 577.298,353.935 					"/>
				</g>
				<g>
					<polygon opacity="0.2" fill="#063A5C" points="577.298,353.935 602.765,366.334 449.696,374.425 422.304,362.922 					"/>
				</g>
				<g>
					<polygon opacity="0.2" fill="#095689" points="593.867,171.669 577.298,353.935 422.304,362.922 440.117,190.91 					"/>
				</g>
			</g>
			<g enable-background="new    ">
				<g>
					<polygon opacity="0.2" fill="#0B6AAA" points="464.205,412.849 491.284,423.502 473.948,601.463 446.066,594.753 					"/>
				</g>
				<g>
					<polygon opacity="0.2" fill="#063A5C" points="446.066,594.753 473.948,601.463 331.089,596.37 301.679,589.929 					"/>
				</g>
				<g>
					<polygon opacity="0.2" fill="#095689" points="464.205,412.849 446.066,594.753 301.679,589.929 320.802,418.242 					"/>
				</g>
			</g>
			<g enable-background="new    ">
				<g>
					<polygon opacity="0.2" fill="#0B6AAA" points="440.205,653.534 468.349,658.945 450.336,843.858 421.342,842.712 					"/>
				</g>
				<g>
					<polygon opacity="0.2" fill="#095689" points="440.205,653.534 421.342,842.712 275.662,823.503 295.506,645.348 					"/>
				</g>
			</g>
			<g enable-background="new    ">
				<g>
					<polygon opacity="0.2" fill="#0A639F" points="820.824,143.267 841.999,161.656 828.454,354.404 806.583,340.641 					"/>
				</g>
				<g>
					<polygon opacity="0.2" fill="#063A5C" points="806.583,340.641 828.454,354.404 649.663,363.855 624.87,351.177 					"/>
				</g>
				<g>
					<polygon opacity="0.2" fill="#095689" points="820.824,143.267 806.583,340.641 624.87,351.177 641.004,165.77 					"/>
				</g>
			</g>
			<g enable-background="new    ">
				<g>
					<polygon opacity="0.2" fill="#0B66A4" points="685.988,404.508 710.008,416.26 694.641,609.331 669.846,602.229 					"/>
				</g>
				<g>
					<polygon opacity="0.2" fill="#063A5C" points="669.846,602.229 694.641,609.331 527.086,603.357 499.867,596.55 					"/>
				</g>
				<g>
					<polygon opacity="0.2" fill="#095689" points="685.988,404.508 669.846,602.229 499.867,596.55 517.577,410.842 					"/>
				</g>
			</g>
		</g>
	</g>
</g>
<g id="Layer_1_copy" display="none">
	<g display="inline" opacity="0.7">
		<g>
			<g enable-background="new    ">
				<g>
					<polygon opacity="0.2" fill="#063A5D" points="1209.342,520.294 1180.902,511.847 1295.051,514.521 1324.56,522.628 					"/>
				</g>
				<g>
					<polygon opacity="0.2" fill="#063656" points="1191.28,668.306 1163.536,656.786 1180.902,511.847 1209.342,520.294 					"/>
				</g>
				<g>
					<polygon opacity="0.2" fill="#084F7E" points="1209.342,520.294 1324.56,522.628 1306.118,663.736 1191.28,668.306 					"/>
				</g>
			</g>
			<g enable-background="new    ">
				<g>
					<polygon opacity="0.2" fill="#053250" points="1225.05,303.367 1195.69,299.534 1299.685,310.918 1330.025,314.832 					"/>
				</g>
				<g>
					<polygon opacity="0.2" fill="#063656" points="1208.386,440.868 1179.682,434.07 1195.69,299.534 1225.05,303.367 					"/>
				</g>
				<g>
					<polygon opacity="0.2" fill="#084F7E" points="1225.05,303.367 1330.025,314.832 1313.051,446.365 1208.386,440.868 					"/>
				</g>
			</g>
			<g enable-background="new    ">
				<g>
					<polygon opacity="0.2" fill="#064066" points="1092.788,446.546 1065.441,439.316 1147.608,443.444 1175.927,450.533 					"/>
				</g>
				<g>
					<polygon opacity="0.2" fill="#063B5F" points="1081.366,547.889 1054.48,538.418 1065.441,439.316 1092.788,446.546 					"/>
				</g>
				<g>
					<polygon opacity="0.2" fill="#095A91" points="1092.788,446.546 1175.927,450.533 1164.263,548.604 1081.366,547.889 					"/>
				</g>
			</g>
			<g enable-background="new    ">
				<g>
					<polygon opacity="0.2" fill="#063B5E" points="1099.766,316.14 1071.919,311.832 1146.895,319.299 1175.637,323.651 					"/>
				</g>
				<g>
					<polygon opacity="0.2" fill="#063B5F" points="1089.289,409.584 1061.87,403.162 1071.919,311.832 1099.766,316.14 					"/>
				</g>
				<g>
					<polygon opacity="0.2" fill="#095A91" points="1099.766,316.14 1175.637,323.651 1164.968,414.291 1089.289,409.584 					"/>
				</g>
			</g>
			<g enable-background="new    ">
				<g>
					<polygon opacity="0.2" fill="#095385" points="956.087,640.859 931.161,628.862 1036.996,626.584 1063.377,638.054 					"/>
				</g>
				<g>
					<polygon opacity="0.2" fill="#074269" points="943.291,763.952 918.889,749.201 931.161,628.862 956.087,640.859 					"/>
				</g>
				<g>
					<polygon opacity="0.2" fill="#0B68A7" points="956.087,640.859 1063.377,638.054 1050.122,756.341 943.291,763.952 					"/>
				</g>
			</g>
			<g enable-background="new    ">
				<g>
					<polygon opacity="0.2" fill="#063A5C" points="960.389,497.567 935,488.807 1015.203,491.192 1041.725,499.745 					"/>
				</g>
				<g>
					<polygon opacity="0.2" fill="#05314F" points="950.715,591.335 925.729,580.418 935,488.807 960.389,497.567 					"/>
				</g>
				<g>
					<polygon opacity="0.2" fill="#084F7E" points="960.389,497.567 1041.725,499.745 1031.786,590.699 950.715,591.335 					"/>
				</g>
			</g>
			<g enable-background="new    ">
				<g>
					<polygon opacity="0.2" fill="#06395B" points="992.342,258.655 965.805,255.537 1032.247,263.278 1059.719,266.505 					"/>
				</g>
				<g>
					<polygon opacity="0.2" fill="#06395B" points="984.074,338.359 957.888,333.344 965.805,255.537 992.342,258.655 					"/>
				</g>
				<g>
					<polygon opacity="0.2" fill="#095A91" points="992.342,258.655 1059.719,266.505 1051.274,344.158 984.074,338.359 					"/>
				</g>
			</g>
		</g>
	</g>
	<g display="inline" opacity="0.7">
		<g>
			<g enable-background="new    ">
				<g>
					<polygon opacity="0.2" fill="#0B6CAD" points="293.058,209.313 321.154,223.119 303.156,382.171 274.305,371.503 					"/>
				</g>
				<g>
					<polygon opacity="0.2" fill="#063A5C" points="274.305,371.503 303.156,382.171 181.318,388.611 151.54,378.622 					"/>
				</g>
				<g>
					<polygon opacity="0.2" fill="#095689" points="293.058,209.313 274.305,371.503 151.54,378.622 170.888,224.602 					"/>
				</g>
			</g>
			<g enable-background="new    ">
				<g>
					<polygon opacity="0.2" fill="#0B6CAD" points="243.698,642.416 273.826,647.651 254.531,818.244 223.563,816.633 					"/>
				</g>
				<g>
					<polygon opacity="0.2" fill="#095689" points="243.698,642.416 223.563,816.633 99.229,800.238 119.926,635.414 					"/>
				</g>
			</g>
			<g enable-background="new    ">
				<g>
					<polygon opacity="0.2" fill="#0B69A7" points="593.867,171.669 618.585,188.02 602.765,366.334 577.298,353.935 					"/>
				</g>
				<g>
					<polygon opacity="0.2" fill="#063A5C" points="577.298,353.935 602.765,366.334 449.696,374.425 422.304,362.922 					"/>
				</g>
				<g>
					<polygon opacity="0.2" fill="#095689" points="593.867,171.669 577.298,353.935 422.304,362.922 440.117,190.91 					"/>
				</g>
			</g>
			<g enable-background="new    ">
				<g>
					<polygon opacity="0.2" fill="#0B6AAA" points="464.205,412.849 491.284,423.502 473.948,601.463 446.066,594.753 					"/>
				</g>
				<g>
					<polygon opacity="0.2" fill="#063A5C" points="446.066,594.753 473.948,601.463 331.089,596.37 301.679,589.929 					"/>
				</g>
				<g>
					<polygon opacity="0.2" fill="#095689" points="464.205,412.849 446.066,594.753 301.679,589.929 320.802,418.242 					"/>
				</g>
			</g>
			<g enable-background="new    ">
				<g>
					<polygon opacity="0.2" fill="#0B6AAA" points="440.205,653.534 468.349,658.945 450.336,843.858 421.342,842.712 					"/>
				</g>
				<g>
					<polygon opacity="0.2" fill="#095689" points="440.205,653.534 421.342,842.712 275.662,823.503 295.506,645.348 					"/>
				</g>
			</g>
			<g enable-background="new    ">
				<g>
					<polygon opacity="0.2" fill="#0A639F" points="820.824,143.267 841.999,161.656 828.454,354.404 806.583,340.641 					"/>
				</g>
				<g>
					<polygon opacity="0.2" fill="#063A5C" points="806.583,340.641 828.454,354.404 649.663,363.855 624.87,351.177 					"/>
				</g>
				<g>
					<polygon opacity="0.2" fill="#095689" points="820.824,143.267 806.583,340.641 624.87,351.177 641.004,165.77 					"/>
				</g>
			</g>
			<g enable-background="new    ">
				<g>
					<polygon opacity="0.2" fill="#0B66A4" points="685.988,404.508 710.008,416.26 694.641,609.331 669.846,602.229 					"/>
				</g>
				<g>
					<polygon opacity="0.2" fill="#063A5C" points="669.846,602.229 694.641,609.331 527.086,603.357 499.867,596.55 					"/>
				</g>
				<g>
					<polygon opacity="0.2" fill="#095689" points="685.988,404.508 669.846,602.229 499.867,596.55 517.577,410.842 					"/>
				</g>
			</g>
		</g>
	</g>
</g>
</svg>
