<?xml version="1.0" encoding="utf-8"?>
<!-- Generator: Adobe Illustrator 16.0.0, SVG Export Plug-In . SVG Version: 6.00 Build 0)  -->
<!DOCTYPE svg PUBLIC "-//W3C//DTD SVG 1.1//EN" "http://www.w3.org/Graphics/SVG/1.1/DTD/svg11.dtd">
<svg version="1.1" id="Capa_1" xmlns="http://www.w3.org/2000/svg" xmlns:xlink="http://www.w3.org/1999/xlink" x="0px" y="0px"
	 width="44.236px" height="44.236px" viewBox="0 0 44.236 44.236" enable-background="new 0 0 44.236 44.236" xml:space="preserve">
<g>
	<path d="M44.237,22.118c0,12.196-9.923,22.118-22.118,22.118C9.922,44.237,0,34.315,0,22.118C0,9.923,9.922,0,22.118,0
		C34.314,0,44.237,9.923,44.237,22.118z M1.5,22.118c0,11.368,9.249,20.618,20.618,20.618c11.368,0,20.618-9.25,20.618-20.618
		c0-11.369-9.25-20.618-20.618-20.618C10.749,1.5,1.5,10.749,1.5,22.118z"/>
	<path d="M29.884,24.896c0,0.192-0.073,0.384-0.22,0.53c-0.292,0.293-0.769,0.293-1.062,0L21.8,18.63l-6.803,6.796
		c-0.293,0.292-0.77,0.292-1.062,0c-0.293-0.293-0.293-0.769,0-1.062l7.333-7.324c0.293-0.294,0.769-0.294,1.062,0l7.333,7.324
		C29.811,24.512,29.884,24.703,29.884,24.896z"/>
</g>
</svg>
