<?xml version="1.0" encoding="utf-8"?>
<!-- Generator: Adobe Illustrator 16.0.0, SVG Export Plug-In . SVG Version: 6.00 Build 0)  -->
<!DOCTYPE svg PUBLIC "-//W3C//DTD SVG 1.1//EN" "http://www.w3.org/Graphics/SVG/1.1/DTD/svg11.dtd">
<svg version="1.1" id="Layer_1" xmlns="http://www.w3.org/2000/svg" xmlns:xlink="http://www.w3.org/1999/xlink" x="0px" y="0px"
	 width="900px" height="600px" viewBox="0 0 900 600" enable-background="new 0 0 900 600" xml:space="preserve">
<g>
	<polygon fill="#01876A" points="164,278.76 164,500 162,500 162,276.63 162.02,276.65 	"/>
	<path fill="#01876A" d="M298,172v66.23l-0.08-0.08l-0.15,0.15l-1.72,1.71l-0.05,0.05v-1.76l-113.85-0.24
		c-0.38-0.27-0.72-0.55-1.08-0.83c-3.45-2.69-6.82-5.59-10.03-8.7c-2.46-2.37-5.04-4.82-7.04-7.34v-0.08
		c-0.66-0.75-1.32-1.49-1.95-2.26c-0.02-0.02-0.03-0.04-0.05-0.06V172H298z"/>
	<path fill="#01876A" d="M298,401v99h-2v-98.94C296.99,401.12,297.34,401,298,401z"/>
	<path fill="#109F94" d="M164,172v49.11c-0.66-0.75-1.32-1.49-1.95-2.26c-0.02-0.02-0.03-0.04-0.05-0.06
		c-0.66-0.78-1.32-1.57-1.95-2.37c-0.02-0.02-0.03-0.04-0.05-0.06V172H164z"/>
	<polygon fill="#109F94" points="164,278.76 164,500 160,500 160,274.49 160.04,274.53 162,276.63 162.02,276.65 	"/>
	<polygon fill="#109F94" points="300,172 300,240.25 298.07,238.3 297.92,238.15 297.77,238.3 296.05,240.01 296,240.06 296,172 	
		"/>
	<path fill="#109F94" d="M300,401.34V500h-4v-98.94c0.99,0.061,1.34-0.06,2-0.06c0.01,0,0.01,0,0.02,0
		C298.67,401,299.35,401.31,300,401.34z"/>
</g>
<path fill="#01876A" stroke="#109F94" stroke-width="4" stroke-miterlimit="10" d="M314.61-27.94
	c-78.06-0.57-146.7,40.56-184.78,102.57c-10.18,16.58-18.18,34.66-23.58,53.83c-5.1,18.1-7.9,37.16-8.04,56.87
	c-0.06,7.73,0.3,15.37,1.04,22.9c0.07,0.79,0.14,1.58,0.24,2.36l60.51,63.9l0.04,0.04l1.96,2.1l0.02,0.02l1.98,2.11V500h132v-98.94
	c0.99,0.061,1.34-0.06,2-0.06c0.01,0,0.01,0,0.02,0c0.65,0,1.33,0.31,1.98,0.34V401h0.05c3.78,1,7.59,0.53,11.43,0.56
	c118.66,0.87,215.54-94.529,216.41-213.18C528.75,69.73,433.26-27.08,314.61-27.94z M346.76,225.39c-3.91,4.06-8.04,7.79-12.34,11.2
	c-0.76,0.6-1.52,1.05-2.3,1.63L300.05,238H300v2.25l-1.93-1.95l-0.15-0.15l-0.15,0.15l-1.72,1.71l-0.05,0.05v-1.76l-113.85-0.24
	c-0.38-0.27-0.72-0.55-1.08-0.83c-3.45-2.69-6.82-5.59-10.03-8.7c-2.46-2.37-5.04-4.82-7.04-7.34v-0.08
	c-0.66-0.75-1.32-1.49-1.95-2.26c-0.02-0.02-0.03-0.04-0.05-0.06c-0.66-0.78-1.32-1.57-1.95-2.37c-0.02-0.02-0.03-0.04-0.05-0.06
	c-3.54-4.44-6.72-9.08-9.57-13.86c-5.88-9.9-10.27-20.46-13.16-31.33c-10.81-40.68-0.7-85.84,30.65-118.33
	c47.65-49.38,126.32-50.79,175.7-3.14C393,97.35,394.42,176.01,346.76,225.39z"/>
<path fill="#01876A" stroke="#109F94" stroke-width="4" stroke-miterlimit="10" d="M346.76,225.39c-3.91,4.06-8.04,7.79-12.34,11.2
	c-0.76,0.6-1.52,1.05-2.3,1.63L300.05,238H300v2.25l-1.93-1.95l-0.15-0.15l-0.15,0.15l-1.72,1.71l-0.05,0.05v-1.76l-113.85-0.24
	c-0.38-0.27-0.72-0.55-1.08-0.83c-3.45-2.69-6.82-5.59-10.03-8.7c-2.46-2.37-5.04-4.82-7.04-7.34v-0.08
	c-0.66-0.75-1.32-1.49-1.95-2.26c-0.02-0.02-0.03-0.04-0.05-0.06c-0.66-0.78-1.32-1.57-1.95-2.37c-0.02-0.02-0.03-0.04-0.05-0.06
	c-3.54-4.44-6.72-9.08-9.57-13.86c-5.88-9.9-10.27-20.46-13.16-31.33c-10.81-40.68-0.7-85.84,30.65-118.33
	c47.65-49.38,126.32-50.79,175.7-3.14C393,97.35,394.42,176.01,346.76,225.39z"/>
<rect x="101.39" y="223.965" transform="matrix(0.7107 -0.7035 0.7035 0.7107 -131.6516 143.4238)" fill="#109F94" width="14.34" height="15.637"/>
<rect x="102.915" y="248.408" transform="matrix(0.7099 -0.7043 0.7043 0.7099 -148.6582 160.5679)" fill="#109F94" width="35.341" height="24.667"/>
<path fill="#FFA500" d="M346.76,225.39c-3.91,4.06-8.04,7.79-12.34,11.2c-0.76,0.6-1.52,1.05-2.3,1.63L300.05,238H296l-113.83-0.09
	c-0.37-0.27-0.73-0.48-1.09-0.75c-3.45-2.7-6.8-5.56-10.01-8.67c-2.46-2.37-4.8-4.8-7.02-7.32c-0.02-0.02-0.04-0.04-0.05-0.06
	c-0.66-0.75-1.32-1.49-1.95-2.26c-0.02-0.02-0.03-0.04-0.05-0.06c-0.66-0.78-1.32-1.57-1.95-2.37c-0.02-0.02-0.03-0.04-0.05-0.06
	c-3.54-4.44-6.72-9.08-9.57-13.86c-5.88-9.9-10.27-20.46-13.16-31.33c-10.81-40.68-0.7-85.84,30.65-118.33
	c47.65-49.38,126.32-50.79,175.7-3.14C393,97.35,394.42,176.01,346.76,225.39z"/>
</svg>
