<?xml version="1.0" encoding="utf-8"?>
<!-- Generator: Adobe Illustrator 16.0.0, SVG Export Plug-In . SVG Version: 6.00 Build 0)  -->
<!DOCTYPE svg PUBLIC "-//W3C//DTD SVG 1.1//EN" "http://www.w3.org/Graphics/SVG/1.1/DTD/svg11.dtd">
<svg version="1.1" id="Layer_1" xmlns="http://www.w3.org/2000/svg" xmlns:xlink="http://www.w3.org/1999/xlink" x="0px" y="0px"
	 width="1800px" height="1200px" viewBox="0 0 1800 1200" enable-background="new 0 0 1800 1200" xml:space="preserve">
<path fill="#109F94" d="M1542.334,591.815c0,158.131-128.188,286.317-286.317,286.317c-49.688,0-96.429-12.647-137.151-34.934
	c123.563-16.576,218.825-122.437,218.825-250.525c0-128.985-96.594-235.4-221.384-250.871
	c41.336-23.124,88.978-36.324,139.71-36.324C1414.146,305.479,1542.334,433.667,1542.334,591.815z"/>
<circle opacity="0.1" fill="#109F94" enable-background="new    " cx="842.546" cy="299.46" r="6.019"/>
<rect x="1206.124" y="376.244" fill="#109F94" width="98.229" height="118.694"/>
<rect x="1255.239" y="482.658" fill="#109F94" width="145.296" height="108.462"/>
<rect x="1283.889" y="435.591" fill="#109F94" width="57.301" height="75.718"/>
<rect x="1206.124" y="582.935" fill="#109F94" width="77.765" height="59.346"/>
<rect x="1169.289" y="752.788" fill="#109F94" width="98.228" height="73.672"/>
<circle fill="#109F94" cx="1198.095" cy="383.125" r="28.805"/>
<circle fill="#109F94" cx="1274.242" cy="496.364" r="29.235"/>
<circle fill="#109F94" cx="1293.39" cy="591.178" r="19.147"/>
<circle fill="#109F94" cx="1269.198" cy="754.437" r="24.19"/>
<circle opacity="0.5" fill="#109F94" enable-background="new    " cx="1162.531" cy="453.211" r="121.357"/>
<g opacity="0.5">
	<g>
		<path fill="#109F94" d="M1217.396,630.979c-32.86-10.052-32.813,24.313-43.114,45.488c-7.231,14.866-25.158,22.237-40.952,21.058
			c-20.05-1.499-29.933-19.347-28.899-37.791c0.223-3.959-5.916-3.936-6.139,0c-1.947,34.699,30.172,52.964,60.709,39.075
			c14.818-6.739,21.805-19.564,26.302-34.412c2.226-7.349,3.945-14.92,7.707-21.676c4.982-8.947,14.074-8.478,22.759-5.823
			C1219.56,638.062,1221.173,632.134,1217.396,630.979L1217.396,630.979z"/>
	</g>
</g>
<g opacity="0.5">
	<g>
		<path fill="#109F94" d="M1214.41,630.051c-8.27,10.244-13.149,19.865-3.764,30.811c4.537,5.294,8.581,10.7,12.887,16.161
			c6.882,8.722,16.901,19.164,0.829,24.467c-3.742,1.234-2.138,7.162,1.631,5.921c15.395-5.078,16.873-15.008,7.676-27.397
			c-4.373-5.893-8.564-12.11-13.314-17.694c-2.663-3.126-5.752-5.82-8.002-9.291c-4.086-6.288,2.73-14.092,6.397-18.637
			C1221.213,631.341,1216.896,626.972,1214.41,630.051L1214.41,630.051z"/>
	</g>
</g>
<g opacity="0.5">
	<g>
		<path fill="#109F94" d="M1219.113,620.662c-20.429-4.9-46.857-33.355-68.693-17.913c-6.572,4.649-9.334,14.034-12.494,21.013
			c-1.948,4.301-4.146,9.243-8.081,12.088c-5.966,4.317-13.884-3.84-17.712-7.517c-2.856-2.745-7.203,1.594-4.342,4.34
			c5.781,5.555,15.404,13.992,24.082,9.084c7.611-4.305,10.756-13.519,14.11-21.074c1.921-4.329,3.911-8.832,7.221-12.29
			c5.788-6.043,16.017-3.426,22.804-1.151c14.483,4.858,26.526,15.757,41.479,19.342
			C1221.33,627.504,1222.963,621.585,1219.113,620.662L1219.113,620.662z"/>
	</g>
</g>
<circle fill="#109F94" stroke="#109F94" stroke-miterlimit="10" cx="1240.991" cy="625.832" r="42.897"/>
<circle fill="#109F94" stroke="#109F94" stroke-miterlimit="10" cx="1217.563" cy="597.63" r="19.47"/>
<path fill="#109F94" stroke="#109F94" stroke-miterlimit="10" d="M1286.988,601.678c5.823,0,10.544,4.719,10.544,10.546
	c0,5.823-4.721,10.543-10.544,10.543c-5.825,0-10.546-4.72-10.546-10.543C1276.442,606.396,1281.163,601.678,1286.988,601.678z"/>
<path fill="#109F94" stroke="#109F94" stroke-miterlimit="10" d="M1280.455,634.778c7.144,0,12.933,5.791,12.933,12.936
	s-5.789,12.936-12.933,12.936c-7.146,0-12.938-5.791-12.938-12.936S1273.31,634.778,1280.455,634.778z"/>
<circle fill="#109F94" stroke="#109F94" stroke-miterlimit="10" cx="1202.054" cy="498.369" r="20.487"/>
</svg>
