<?xml version="1.0" encoding="utf-8"?>
<!-- Generator: Adobe Illustrator 16.0.0, SVG Export Plug-In . SVG Version: 6.00 Build 0)  -->
<!DOCTYPE svg PUBLIC "-//W3C//DTD SVG 1.1//EN" "http://www.w3.org/Graphics/SVG/1.1/DTD/svg11.dtd">
<svg version="1.1" id="Layer_1" xmlns="http://www.w3.org/2000/svg" xmlns:xlink="http://www.w3.org/1999/xlink" x="0px" y="0px"
	 width="900px" height="600px" viewBox="0 0 900 600" enable-background="new 0 0 900 600" xml:space="preserve">
<circle opacity="0.4" fill="#109F94" enable-background="new    " cx="264.285" cy="172.336" r="12.185"/>
<circle opacity="0.4" fill="#109F94" enable-background="new    " cx="229.412" cy="238.303" r="5.883"/>
<circle opacity="0.2" fill="#109F94" enable-background="new    " cx="189.916" cy="202.168" r="4.202"/>
<ellipse fill="#109F94" cx="429.84" cy="225.034" rx="76.47" ry="74.966"/>
<g opacity="0.7">
	<g>
		<path fill="#109F94" d="M372.929,184.521c0.788-12.629-5.587-25.819-12.292-36.109c-6.745-10.352-16.88-20.895-29.862-22.019
			c-5.489-0.475-11.955,1.735-16.073,5.391c-5.769,5.123-6.43,13.241-11.228,19.016c-8.753,10.538-28.895-7.784-32.652,10.633
			c-0.385,1.889,2.506,2.692,2.893,0.798c1.717-8.417,8.466-7.008,15.148-5.8c5.264,0.952,10.304,1.537,14.85-1.774
			c4.768-3.473,6.37-9.85,8.786-14.913c3.017-6.32,9.516-10.029,16.416-10.385c12.915-0.667,23.445,11.839,29.768,21.544
			c6.212,9.534,11.973,21.955,11.246,33.618C369.808,186.454,372.809,186.442,372.929,184.521L372.929,184.521z"/>
	</g>
</g>
<g opacity="0.7">
	<g>
		<path fill="#109F94" d="M375.714,269.78c-16.96,10.131-21.867,29.313-29.141,46.346c-3.866,9.056-8.953,17.636-17.27,23.243
			c-11.17,7.53-26.334,5.751-37.275-1.155c-18.503-11.681-16.264-41.588-38.995-48.106c-10.443-2.994-21.792-1.842-30.55-9.352
			c-6.14-5.264-9.101-12.502-6.974-20.346c1.936-7.14,7.105-13.51,10.996-19.67c1.036-1.641-1.561-3.145-2.591-1.514
			c-6.1,9.656-14.928,20.35-11.311,32.493c3.105,10.425,13.668,16.334,23.561,18.416c11.24,2.366,22.184,1.994,29.328,12.454
			c6.516,9.539,9.481,21.048,16.459,30.338c12.882,17.151,39.319,18.826,54.647,4.425c14.327-13.464,16.527-35.246,26.708-51.382
			c3.533-5.599,8.244-10.207,13.921-13.598C378.886,271.38,377.379,268.786,375.714,269.78L375.714,269.78z"/>
	</g>
</g>
</svg>
